<svg width="88" height="66" viewBox="0 0 88 66" fill="none" xmlns="http://www.w3.org/2000/svg">
<path fill-rule="evenodd" clip-rule="evenodd" d="M28.6753 17.2335C32.0933 13.7854 35.5181 10.3305 38.9568 6.86214H38.9599C38.6807 6.59239 38.4046 6.32669 38.131 6.06346L38.1309 6.06338C37.5022 5.45833 36.887 4.86632 36.278 4.26821C34.6996 2.72128 32.81 1.9038 30.6028 1.84406C28.6188 1.79061 26.8486 2.26852 25.3897 3.74313C24.2239 4.92052 23.058 6.0977 21.8919 7.27463L23.4121 11.1644L19.2296 9.96061C13.3712 15.8691 7.50573 21.7703 1.62305 27.6576C0.503729 28.7769 -0.0213454 30.0346 0.000663685 31.5878C0.0258169 33.3988 0.0163845 35.2099 0.00380784 37.0209C-0.00562463 38.4672 0.484864 39.6777 1.52872 40.6901C2.29063 41.4222 3.03239 42.1731 3.77393 42.9238C4.20441 43.3597 4.63482 43.7954 5.06905 44.2273C6.94551 46.0977 8.82245 47.9673 10.6993 49.8368L10.7006 49.8381L10.7047 49.8422L10.7057 49.8432C13.8676 52.9928 17.0294 56.1422 20.1885 59.2947L25.3083 57.311L23.7671 62.8688C24.2892 63.3907 24.8113 63.9127 25.3331 64.4348C26.3676 65.4724 27.5655 65.9534 29.0118 65.944L29.0181 65.944H29.0183H29.0186C31.8712 65.922 34.7207 65.9 37.5702 65.9314C39.2272 65.9503 40.554 65.3749 41.7174 64.1833C45.8913 59.9054 50.0831 55.647 54.2753 51.3882L54.2759 51.3875L54.2766 51.3868L54.2785 51.385L54.2803 51.3831C55.9191 49.7183 57.5579 48.0534 59.1957 46.3873C59.8334 45.7388 60.4664 45.0872 61.1066 44.4284L61.1075 44.4274L61.1105 44.4244L61.1135 44.4213C61.3928 44.1338 61.6734 43.845 61.9563 43.5545C61.8854 43.4778 61.819 43.4032 61.7545 43.3307L61.7544 43.3306C61.6417 43.2039 61.5346 43.0836 61.4186 42.9696C61.0925 42.6476 60.763 42.329 60.4334 42.0104C59.994 41.5856 59.5546 41.1608 59.1234 40.7279C57.6425 39.2375 55.8629 38.4106 53.7658 38.288C51.7724 38.1685 49.9896 38.6653 48.5433 40.1305C44.0566 44.6832 39.5667 49.2265 35.0737 53.7698C34.6631 54.1849 34.2414 54.5874 33.8164 54.9929L33.8146 54.9946C33.6414 55.1598 33.4678 55.3255 33.2942 55.4928C28.425 50.6837 23.5486 45.8687 18.66 41.043L16.1875 43.4258L14.7477 37.1813L11.7913 34.2635C17.4047 28.6032 23.0048 22.9538 28.6232 17.2861L28.6743 17.2345L28.6753 17.2335Z" fill="white"/>
<path fill-rule="evenodd" clip-rule="evenodd" d="M63.4582 44.8945L49.4063 59.1021H49.4095C49.724 59.4235 50.0316 59.7411 50.3356 60.055L50.3356 60.0551L50.3357 60.0552C50.9982 60.7393 51.6436 61.4057 52.3053 62.0544C54.4904 64.1925 57.1127 64.7584 60.0399 64.1201C61.2435 63.8579 62.1627 63.1627 63.0202 62.3464L64.4651 53.0348L68.3455 56.9832C74.4104 50.867 80.4842 44.7609 86.564 38.6588C87.5167 37.7029 87.9946 36.5899 87.9946 35.2568C87.9957 34.523 87.9937 33.7889 87.9918 33.0546C87.9881 31.6777 87.9845 30.3004 88.0009 28.9244C88.0166 27.4687 87.5041 26.2865 86.4602 25.2646C84.3251 23.172 82.2058 21.0621 80.0867 18.9525L80.0865 18.9523L80.0863 18.9521C79.0725 17.9429 78.0588 16.9337 77.0435 15.9265C76.151 15.0411 75.2578 14.1565 74.3644 13.2721L68.4524 14.5859L69.4311 8.38759C67.2282 6.2034 65.0294 4.01523 62.8413 1.81552C61.6371 0.601875 60.3103 -0.0332446 58.5936 0.00134116C56.072 0.0516477 53.5472 0.0422152 51.0224 0.00134116C49.3183 -0.0238121 47.9537 0.576722 46.7527 1.78722C41.3455 7.25356 35.9194 12.701 30.4933 18.1483L30.4931 18.1486L30.492 18.1496C29.2864 19.36 28.0807 20.5703 26.8753 21.7809C26.7362 21.9222 26.5801 22.0464 26.4203 22.1737L26.4202 22.1737C26.3417 22.2362 26.2623 22.2994 26.1836 22.3657C26.4807 22.6928 26.7722 23.0092 27.058 23.3196L27.0585 23.32L27.0586 23.3202C27.7013 24.0179 28.3159 24.685 28.9033 25.3747C31.2017 28.0755 36.8549 28.6132 39.7821 25.5162C40.3777 24.8865 40.9764 24.2596 41.5775 23.635L42.4309 18.2305L44.6645 20.4641C46.2985 18.8021 47.9434 17.1503 49.5884 15.4983L49.5885 15.4982C50.9803 14.1004 52.3723 12.7026 53.7579 11.2983C53.9644 11.0903 54.1709 10.883 54.3705 10.6826L54.3727 10.6804L54.3734 10.6797L54.374 10.6791L54.3758 10.6773C54.5906 10.4617 54.7973 10.2542 54.9872 10.0626L76.6316 31.575L63.4582 44.8945Z" fill="white"/>
</svg>
