<svg width="28" height="24" viewBox="0 0 28 24" fill="none" xmlns="http://www.w3.org/2000/svg">
<path d="M4.5193 8.30132C1.82284 7.16761 0.474609 6.60075 0.474609 5.89635C0.474609 5.19196 1.82284 4.6251 4.5193 3.49138L8.33267 1.88807C11.0291 0.754357 12.3774 0.1875 14.0527 0.1875C15.7281 0.1875 17.0763 0.754357 19.7728 1.88807L23.5861 3.49138C26.2826 4.6251 27.6308 5.19196 27.6308 5.89635C27.6308 6.60075 26.2826 7.16761 23.5861 8.30132L19.7728 9.90464C17.0763 11.0384 15.7281 11.6052 14.0527 11.6052C12.3774 11.6052 11.0291 11.0384 8.33267 9.90464L4.5193 8.30132Z" fill="white"/>
<path fill-rule="evenodd" clip-rule="evenodd" d="M0.474609 5.89635C0.474609 6.60075 1.82284 7.16761 4.5193 8.30132L8.33267 9.90464C11.0291 11.0384 12.3774 11.6052 14.0527 11.6052C15.7281 11.6052 17.0763 11.0384 19.7728 9.90464L23.5861 8.30132C26.2826 7.16761 27.6308 6.60075 27.6308 5.89635C27.6308 5.19196 26.2826 4.6251 23.5861 3.49138L19.7728 1.88807C17.0763 0.754357 15.7281 0.1875 14.0527 0.1875C12.3774 0.1875 11.0291 0.754357 8.33267 1.88807L4.5193 3.49138C1.82284 4.6251 0.474609 5.19196 0.474609 5.89635Z" fill="white"/>
<path d="M23.5861 14.0102L19.7728 15.6135C17.0763 16.7472 15.7281 17.3141 14.0527 17.3141C12.3774 17.3141 11.0291 16.7472 8.33267 15.6135L4.5193 14.0102C1.82284 12.8765 0.474609 12.3096 0.474609 11.6052C0.474609 10.9703 1.5701 10.4471 3.7611 9.5197L8.02598 11.3129C10.5361 12.3688 12.1137 13.0324 14.0527 13.0324C15.9917 13.0324 17.5694 12.3688 20.0795 11.3129L24.3443 9.51969C26.5353 10.4471 27.6308 10.9703 27.6308 11.6052C27.6308 12.3096 26.2826 12.8765 23.5861 14.0102Z" fill="white"/>
<path d="M23.5861 19.7188L19.7728 21.3221C17.0763 22.4558 15.7281 23.0227 14.0527 23.0227C12.3774 23.0227 11.0291 22.4558 8.33267 21.3221L4.5193 19.7188C1.82284 18.5851 0.474609 18.0182 0.474609 17.3138C0.474609 16.6789 1.5701 16.1557 3.7611 15.2283L8.02598 17.0215C10.5361 18.0774 12.1137 18.741 14.0527 18.741C15.9917 18.741 17.5694 18.0774 20.0795 17.0215L24.3443 15.2283C26.5353 16.1557 27.6308 16.6789 27.6308 17.3138C27.6308 18.0182 26.2826 18.5851 23.5861 19.7188Z" fill="white"/>
</svg>
