<svg width="15" height="25" viewBox="0 0 15 25" fill="none" xmlns="http://www.w3.org/2000/svg">
<path d="M14.9887 12.2757C14.9358 11.7841 14.7144 11.3192 14.3551 10.9449L4.7503 0.896303C4.52662 0.646046 4.24911 0.438665 3.93429 0.286492C3.61946 0.134318 3.27372 0.0404443 2.91764 0.0104702C2.56155 -0.0195039 2.20238 0.015042 1.86147 0.112018C1.52056 0.208994 1.20487 0.366427 0.933161 0.574984C0.661454 0.783541 0.439275 1.03895 0.27983 1.32603C0.120384 1.61312 0.0269284 1.92603 0.00501384 2.24615C-0.0169007 2.56627 0.0331743 2.88707 0.152264 3.18949C0.271353 3.49191 0.457024 3.76978 0.698244 4.00658L8.819 12.5L0.698244 20.9935C0.457024 21.2302 0.271353 21.5081 0.152264 21.8105C0.0331743 22.113 -0.0169007 22.4338 0.00501384 22.7539C0.0269284 23.074 0.120384 23.3869 0.27983 23.674C0.439275 23.9611 0.661454 24.2165 0.933161 24.425C1.20487 24.6336 1.52056 24.791 1.86147 24.888C2.20238 24.985 2.56155 25.0195 2.91764 24.9895C3.27372 24.9596 3.61946 24.8657 3.93429 24.7135C4.24911 24.5614 4.52662 24.354 4.7503 24.1037L14.3551 14.0551C14.5884 13.8118 14.7647 13.5289 14.8736 13.2232C14.9824 12.9175 15.0216 12.5952 14.9887 12.2757Z" fill="#483F50"/>
</svg>
