<svg width="24" height="25" viewBox="0 0 24 25" fill="none" xmlns="http://www.w3.org/2000/svg">
<path d="M1.40346 0.92326C0.913309 0.759878 0.383518 1.02477 0.220135 1.51492C0.0567529 2.00507 0.321648 2.53486 0.811796 2.69824L1.14223 2.80839C1.98593 3.08962 2.54374 3.27704 2.95467 3.46821C3.34379 3.64923 3.51202 3.79492 3.61981 3.94447C3.72761 4.09403 3.81261 4.2997 3.8613 4.72609C3.9127 5.17639 3.91412 5.76484 3.91412 6.65418L3.91412 9.98684C3.91409 11.6927 3.91407 13.0676 4.05946 14.149C4.21041 15.2718 4.53333 16.2171 5.28412 16.9679C6.03491 17.7187 6.98023 18.0416 8.10296 18.1925C9.18435 18.3379 10.5593 18.3379 12.2651 18.3379H21.0649C21.5816 18.3379 22.0004 17.919 22.0004 17.4024C22.0004 16.8857 21.5816 16.4669 21.0649 16.4669H12.3336C10.5432 16.4669 9.29444 16.4649 8.35227 16.3382C7.43701 16.2152 6.95233 15.9901 6.60712 15.6449C6.31376 15.3515 6.10716 14.9575 5.9762 14.284H18.5977C19.7944 14.284 20.3928 14.284 20.8614 13.975C21.33 13.666 21.5657 13.1161 22.0372 12.0161L22.5717 10.7688C23.5814 8.41279 24.0863 7.2348 23.5317 6.39377C22.9771 5.55274 21.6955 5.55274 19.1323 5.55274H5.77894C5.77158 5.16895 5.75547 4.82269 5.72021 4.51386C5.65117 3.90913 5.50074 3.35425 5.13764 2.85048C4.77455 2.34672 4.29571 2.02853 3.74385 1.7718C3.22467 1.53027 2.56442 1.31022 1.78313 1.04982L1.40346 0.92326Z" fill="black"/>
<path d="M7.96769 20.5207C9.00101 20.5207 9.83868 21.3584 9.83868 22.3917C9.83868 23.4251 9.00101 24.2627 7.96769 24.2627C6.93436 24.2627 6.09669 23.4251 6.09669 22.3917C6.09669 21.3584 6.93436 20.5207 7.96769 20.5207Z" fill="black"/>
<path d="M19.1937 20.5208C20.227 20.5208 21.0646 21.3585 21.0646 22.3918C21.0646 23.4252 20.227 24.2628 19.1937 24.2628C18.1603 24.2628 17.3227 23.4252 17.3227 22.3918C17.3227 21.3585 18.1603 20.5208 19.1937 20.5208Z" fill="black"/>
</svg>
