<svg width="36" height="36" viewBox="0 0 36 36" fill="none" xmlns="http://www.w3.org/2000/svg">
<g clip-path="url(#clip0_214_484)">
<path d="M30.4756 6.23336C28.181 5.18054 25.7205 4.40486 23.1479 3.9606C23.101 3.95203 23.0542 3.97346 23.0301 4.01631C22.7137 4.57913 22.3631 5.31338 22.1177 5.8905C19.3507 5.47624 16.5978 5.47624 13.8875 5.8905C13.642 5.30055 13.2788 4.57913 12.9609 4.01631C12.9368 3.97489 12.89 3.95346 12.8431 3.9606C10.2719 4.40344 7.81139 5.17912 5.51545 6.23336C5.49557 6.24193 5.47854 6.25623 5.46723 6.27479C0.800133 13.2473 -0.47838 20.0485 0.148816 26.7653C0.151654 26.7982 0.170101 26.8296 0.195643 26.8496C3.27486 29.1109 6.25761 30.4837 9.18496 31.3937C9.23181 31.408 9.28145 31.3908 9.31127 31.3522C10.0037 30.4066 10.621 29.4095 11.1503 28.3609C11.1815 28.2995 11.1517 28.2267 11.0878 28.2024C10.1087 27.831 9.17645 27.3781 8.27964 26.8639C8.2087 26.8225 8.20303 26.721 8.26828 26.6724C8.457 26.531 8.64578 26.3839 8.82598 26.2353C8.85858 26.2082 8.90401 26.2025 8.94234 26.2196C14.834 28.9095 21.2124 28.9095 27.0345 26.2196C27.0728 26.201 27.1182 26.2068 27.1523 26.2339C27.3325 26.3825 27.5212 26.531 27.7114 26.6724C27.7766 26.721 27.7724 26.8225 27.7014 26.8639C26.8046 27.3881 25.8723 27.831 24.8918 28.201C24.828 28.2253 24.7996 28.2995 24.8308 28.3609C25.3714 29.408 25.9887 30.4051 26.6684 31.3508C26.6968 31.3908 26.7478 31.408 26.7947 31.3937C29.7362 30.4837 32.719 29.1109 35.7982 26.8496C35.8252 26.8296 35.8422 26.7996 35.845 26.7667C36.5957 19.0013 34.5878 12.256 30.5224 6.27621C30.5124 6.25623 30.4954 6.24193 30.4756 6.23336ZM12.0301 22.6755C10.2563 22.6755 8.79474 21.047 8.79474 19.0471C8.79474 17.0472 10.2279 15.4187 12.0301 15.4187C13.8464 15.4187 15.2938 17.0615 15.2654 19.0471C15.2654 21.047 13.8322 22.6755 12.0301 22.6755ZM23.9922 22.6755C22.2184 22.6755 20.7569 21.047 20.7569 19.0471C20.7569 17.0472 22.19 15.4187 23.9922 15.4187C25.8085 15.4187 27.2558 17.0615 27.2275 19.0471C27.2275 21.047 25.8085 22.6755 23.9922 22.6755Z" fill="white"/>
</g>
<defs>
<clipPath id="clip0_214_484">
<rect width="36" height="36" fill="white"/>
</clipPath>
</defs>
</svg>
