<?xml version="1.0" encoding="utf-8"?>
<!-- Generator: Adobe Illustrator 28.2.0, SVG Export Plug-In . SVG Version: 6.00 Build 0)  -->
<svg version="1.1" id="Layer_1" xmlns="http://www.w3.org/2000/svg" xmlns:xlink="http://www.w3.org/1999/xlink" x="0px" y="0px"
	 viewBox="0 0 50 50" style="enable-background:new 0 0 50 50;" xml:space="preserve">
<style type="text/css">
	.st0{fill:#FFFFFF;}
	.st1{fill:#06DA65;}
	.st2{fill:#017358;}
	.st3{fill:#74FB0D;}
	.st4{fill:#2AF2A7;}
	.st5{fill:#6EF55A;}
	.st6{fill:#14D845;}
	.st7{fill:#28DF9C;}
	.st8{fill:#7EF84D;}
	.st9{fill:#025B51;}
	.st10{fill:#16C64F;}
	.st11{fill:#019962;}
	.st12{fill:#018464;}
	.st13{fill:#4CEE76;}
</style>
<circle class="st0" cx="25" cy="25" r="25"/>
<g>
	<path class="st1" d="M15.91,10.14c0.2-0.19,0.22-0.42,0.21-0.68c-0.01-0.81-0.01-1.62,0-2.42c0-0.21-0.09-0.46,0.11-0.65
		c0.47,0.44,1.06,0.68,1.61,0.98c1.08,0.59,2.16,1.2,3.23,1.8c1.43,0.8,2.88,1.54,4.27,2.39c0.83,0.51,1.72,0.92,2.58,1.38
		c-0.08,0.26-0.03,0.51,0.12,0.73c0,0.09,0,0.18,0,0.28c-0.11,0.09-0.11,0.22-0.1,0.35c0.06,1.61-0.21,3.21-0.13,4.82
		c0.01,0.18,0.1,0.41-0.13,0.54c-0.21-0.12-0.01-0.4-0.28-0.5c-0.2,0.21,0.02,0.53-0.24,0.8c-0.21-0.41-0.59-0.36-0.97-0.36
		c-0.29,0-0.58,0.03-0.86-0.09c-0.33-0.15-0.63-0.17-0.87,0.2c-0.11,0.17-0.36,0.34-0.54,0.22c-0.59-0.4-1.41-0.25-1.92-0.84
		c-0.2-0.23-0.42-0.08-0.63,0.01c-0.75-0.11-1.24-0.73-1.92-0.98c-0.26-0.09-0.5-0.24-0.76-0.06c-0.75,0.52-1.62,0.82-2.33,1.4
		c-0.43-0.08-0.25-0.43-0.26-0.66c-0.01-2.67,0-5.34-0.01-8.01C16.12,10.57,16.23,10.28,15.91,10.14z"/>
	<path class="st2" d="M16.39,39.44c-0.99,0.34-1.83,0.96-2.76,1.43c-0.23,0.12-0.45,0.46-0.75,0.09c0.48,0.02,0.32-0.34,0.32-0.57
		c0.01-2.57,0.01-5.14,0-7.71c0-1.59-0.02-3.17-0.03-4.76c0.27-0.15,0.54-0.31,0.8-0.46c1.01-0.6,2.09-1.08,3.05-1.77
		c0.58-0.28,1.15-0.56,1.73-0.84c0.03,0.31-0.7,0.48-0.15,0.88c-0.43,0.31-0.05,0.61,0,0.93c0.19,1.43,0.42,2.86,0.63,4.29
		c0.26,1.76,0.65,3.51,0.65,5.3c0,0.27,0.3,0.27,0.32,0.52c-0.41,0-0.63,0.13-0.31,0.54c-0.74,0.45-1.5,0.87-2.26,1.29
		C17.21,38.84,16.67,38.96,16.39,39.44z"/>
	<path class="st3" d="M27.94,12.95c-0.86-0.46-1.75-0.88-2.58-1.38c-1.4-0.85-2.85-1.59-4.27-2.39c-1.08-0.6-2.15-1.21-3.23-1.8
		c-0.55-0.3-1.14-0.54-1.61-0.98c1.84-1.03,3.68-2.06,5.51-3.1c0.21-0.12,0.37-0.11,0.58,0c3.87,2.15,7.75,4.29,11.63,6.44
		c0.01,0.04,0.02,0.08,0.02,0.13c-0.04,0.02-0.08,0.03-0.12,0.05c-0.2-0.03-0.35,0.07-0.52,0.17c-1.75,0.97-3.51,1.92-5.26,2.88
		C28.03,12.95,27.98,12.95,27.94,12.95z"/>
	<path class="st4" d="M13.18,27.92c0.01,1.59,0.03,3.17,0.03,4.76c0.01,2.57,0,5.14,0,7.71c0,0.23,0.16,0.6-0.32,0.57
		c-1.84-1.06-3.68-2.13-5.52-3.19c0-4.36,0-8.73,0-13.09c0.55,0.03,0.89,0.48,1.34,0.71C10.21,26.2,11.69,27.07,13.18,27.92z"/>
	<path class="st5" d="M18.76,24.85c-0.58,0.28-1.15,0.56-1.73,0.84c-0.01-0.15-0.02-0.29-0.03-0.43h0c0.37-0.14,0.37-0.35,0.02-0.48
		c-0.25-0.1-0.58-0.14-0.72-0.35c-0.51-0.8-1.07-1.56-1.61-2.33c-0.47-0.66-0.77-0.97-1.52-0.73c-0.06,0.02-0.12,0-0.19,0
		c0.09-0.18,0.04-0.29-0.14-0.39c-0.26-0.15-0.51-0.32-0.76-0.49c0.33-0.02,0.83,0.11,0.41-0.52c-0.09-0.13-0.09-0.38,0.16-0.47
		c0.54-0.2,0.33-0.52,0.06-0.72c-0.23-0.17-0.29-0.28-0.12-0.49c0.16-0.2,0.13-0.44,0.12-0.66c-0.05-1.13,0.05-2.25-0.08-3.38
		c-0.08-0.71,0.33-1.49-0.43-2.06c1.19-0.75,2.44-1.39,3.69-2.03c0.32,0.14,0.21,0.42,0.21,0.66c0,2.67,0,5.34,0.01,8.01
		c0,0.23-0.17,0.57,0.26,0.66c0.69,0.04,1.19-0.4,1.72-0.73c0.37-0.23,0.69-0.58,0.95,0.09c0.05,0.11,0.15,0.12,0.25,0.14
		c0.27,0.07,0.8-0.16,0.75,0.27c-0.05,0.46-0.51,0.08-0.78,0.12c-0.27,0.04-0.68,0.02-0.69,0.37c-0.01,0.34,0.38,0.2,0.61,0.25
		c0.47,0.1,0.88,0.12,1.01,0.84c0.12,0.68,0.61,1.32,1.06,1.89c0.16,0.2,0.2,0.22,0.05,0.38c-0.11,0.12-0.28,0.2-0.28,0.39
		C20.27,23.94,19.52,24.4,18.76,24.85z"/>
	<path class="st2" d="M45.64,26.18c0.19,0.11,0.12,0.29,0.12,0.45c0,1.88,0,3.76,0.01,5.64c0,0.33-0.02,0.6-0.36,0.79
		c-2.13,1.18-4.23,2.42-6.41,3.51c-0.21,0-0.42,0-0.62,0l0,0c0-1.13-0.04-2.26,0.02-3.39c0.03-0.59-0.23-0.88-0.71-1.1
		c-0.12-0.05-0.31,0.03-0.37-0.24c0.46-0.09,0.92-0.04,1.46,0.04c-0.12-0.27-0.29-0.44-0.18-0.69c0.21-0.48,0.04-0.73-0.5-0.66
		c1.65-1.05,3.41-1.91,5.1-2.89C44.02,27.15,44.92,26.82,45.64,26.18z"/>
	<path class="st6" d="M27.83,45.75c-0.67-0.38-1.35-0.76-2.02-1.14c-0.01-0.22,0.04-0.51-0.31-0.49c-0.32,0.02-0.5-0.18-0.68-0.37
		c-0.2-0.21-0.4-0.39-0.74-0.4c-0.39-0.01-0.56-0.46-0.94-0.58c-0.21-0.07-0.07-0.46-0.1-0.7c-0.02-0.18,0.04-0.38-0.22-0.45
		c-0.2-0.05-0.54,0.15-0.58-0.17c-0.03-0.25,0.34-0.33,0.49-0.53c0.07-0.09,0.27-0.04,0.23-0.24c-0.16-0.12-0.49-0.04-0.5-0.3
		c-0.03-0.74-0.27-1.52,0.19-2.2c0.51-0.74,0.53-0.71-0.22-1.18c-0.18-0.11-0.46-0.28-0.34-0.53c0.12-0.27,0.39-0.16,0.6-0.05
		c0.56,0.32,0.96-0.14,1.4-0.3c0.28-0.1,0.18-0.32-0.08-0.43c-0.26-0.11-0.28-0.26,0-0.37c0.52-0.19,0.98-0.74,1.62-0.27
		c0.07,0.05,0.2,0.01,0.31,0.01c0.8,0.22,1.44,0.75,2.14,1.16c0,2.95,0.01,5.9,0,8.85C28.07,45.3,28.22,45.64,27.83,45.75z"/>
	<path class="st7" d="M45.64,26.18c-0.72,0.64-1.62,0.98-2.44,1.45c-1.69,0.98-3.45,1.84-5.1,2.89c-0.32,0.14-0.64,0.29-0.96,0.43
		c0.01-0.28-0.12-0.6,0.24-0.77c0.39-0.19,0.3-0.38,0.01-0.58c-0.37-0.26-0.39-0.55-0.02-0.84c0.09-0.07,0.12-0.15,0.11-0.27
		c-0.21-1.68-0.04-3.38-0.09-5.06c-0.02-0.66,0.06-1.33-0.25-1.96c0.08,0.01,0.16,0.01,0.24,0.02l0.01,0
		c0.21,0.2,0.44,0.37,0.74,0.4c0.05,0.03,0.09,0.07,0.14,0.1c0.04,0.03,0.08,0.06,0.12,0.09c1.47,0.81,2.93,1.61,4.4,2.42
		C43.73,25.06,44.69,25.62,45.64,26.18z"/>
	<path class="st8" d="M12.22,12.17c0.76,0.57,0.35,1.35,0.43,2.06c0.13,1.13,0.03,2.26,0.08,3.38c0.01,0.23,0.04,0.46-0.12,0.66
		c-0.17,0.21-0.11,0.32,0.12,0.49c0.28,0.2,0.48,0.53-0.06,0.72c-0.25,0.09-0.24,0.34-0.16,0.47c0.41,0.63-0.08,0.5-0.41,0.52
		c-0.04-0.03-0.09-0.06-0.13-0.09c0.03-0.66-0.47-0.33-0.75-0.4c-0.2-0.02-0.36-0.1-0.49-0.24c-0.01-0.28-0.2-0.27-0.4-0.25
		c-0.03,0-0.07,0-0.1-0.02c-0.02-0.27-0.21-0.25-0.4-0.23c-0.1-0.02-0.21-0.03-0.3-0.07c-1.66-0.93-3.32-1.86-4.99-2.79
		c0.65-0.52,1.42-0.83,2.14-1.23C8.52,14.14,10.37,13.16,12.22,12.17z M11.5,19.09c0.21,0.17,0.38,0.17,0.54,0.04
		c0.02-0.02,0-0.13-0.03-0.16C11.81,18.78,11.68,18.93,11.5,19.09z"/>
	<path class="st9" d="M37.13,30.94c0.32-0.14,0.64-0.29,0.96-0.43c0.54-0.06,0.71,0.18,0.5,0.66c-0.11,0.26,0.05,0.43,0.18,0.69
		c-0.54-0.08-1-0.13-1.46-0.04c0.06,0.27,0.25,0.19,0.37,0.24c0.48,0.21,0.74,0.51,0.71,1.1c-0.05,1.13-0.02,2.26-0.02,3.39
		c-0.15,0.03-0.34-0.08-0.45,0.16c0.22,0.1,0.39,0.14,0.45-0.17c0.21,0,0.42,0,0.62,0c-1.63,1-3.29,1.93-5,2.79
		c-0.03-0.02-0.05-0.05-0.08-0.07c0.01-0.52,0.02-1.05,0.03-1.57c0.03-1.67-0.06-3.35,0.05-5.02
		C35.07,32.15,36.13,31.61,37.13,30.94z"/>
	<path class="st10" d="M11.96,20.39c0.04,0.03,0.09,0.06,0.13,0.09c0.25,0.16,0.5,0.34,0.76,0.49c0.18,0.1,0.22,0.22,0.14,0.39
		c-0.29,0.13-0.58,0.25-0.88,0.38c-0.4-0.14-0.68,0.25-1.06,0.25c-1.94-0.02-3.87,0.2-5.81,0.14C4.82,22.11,4.68,22,4.67,21.56
		c-0.01-0.36,0.23-0.79-0.2-1.08c0.02-1.37-0.13-2.74,0.07-4.1c1.66,0.93,3.32,1.86,4.99,2.79c0.09,0.05,0.2,0.05,0.3,0.07
		c0.1,0.14,0.22,0.24,0.4,0.23c0.03,0.01,0.06,0.02,0.1,0.02c0.09,0.15,0.22,0.24,0.4,0.25c0.13,0.14,0.3,0.23,0.49,0.24
		C11.43,20.17,11.66,20.36,11.96,20.39z"/>
	<path class="st10" d="M25.93,35.05c-0.1,0-0.24,0.04-0.31-0.01c-0.64-0.47-1.1,0.08-1.62,0.27c-0.28,0.11-0.27,0.25,0,0.37
		c0.26,0.11,0.36,0.33,0.08,0.43c-0.44,0.16-0.84,0.62-1.4,0.3c-0.2-0.12-0.48-0.22-0.6,0.05c-0.11,0.25,0.16,0.42,0.34,0.53
		c0.75,0.46,0.73,0.44,0.22,1.18c-0.47,0.68-0.22,1.46-0.19,2.2c0.01,0.26,0.34,0.18,0.5,0.3c0.04,0.2-0.16,0.15-0.23,0.24
		c-0.15,0.2-0.52,0.27-0.49,0.53c0.03,0.32,0.38,0.12,0.58,0.17c0.26,0.07,0.21,0.27,0.22,0.45c0.03,0.24-0.11,0.63,0.1,0.7
		c0.38,0.12,0.55,0.57,0.94,0.58c0.34,0.01,0.53,0.19,0.74,0.4c0.19,0.2,0.36,0.39,0.68,0.37c0.36-0.02,0.3,0.27,0.31,0.49
		c-1.26-0.55-2.42-1.3-3.62-1.95c-1.94-1.05-3.87-2.14-5.8-3.21c0.28-0.48,0.82-0.6,1.25-0.84c0.76-0.42,1.52-0.84,2.26-1.29
		c1.03-0.49,1.99-1.08,2.96-1.68c0.66-0.41,1.38-0.73,2.07-1.09C25.38,34.5,25.68,34.72,25.93,35.05z"/>
	<path class="st9" d="M34,39.35c-0.01,0.88-0.02,1.75-0.05,2.63c-0.01,0.2,0.09,0.42-0.11,0.59c0.01-0.27-0.08-0.37-0.38-0.29
		c-0.37,0.1-0.74,0.21-1.16,0.17c-0.85-0.08-1.71-0.18-2.57-0.01c-0.77,0.15-1.54-0.47-1.54-1.26c-0.01-1.38,0-2.75-0.01-4.13
		c0-0.26-0.01-0.51,0.28-0.63c0.19,0.09,0.38,0.17,0.56,0.27c1.1,0.63,2.21,1.26,3.31,1.89c0.02,0.25,0.2,0.25,0.39,0.24
		c0.04,0.01,0.08,0.02,0.11,0.04c0.03,0.23,0.21,0.22,0.37,0.22l0,0c0.05,0.04,0.1,0.07,0.15,0.11c0.18,0.09,0.35,0.19,0.56,0.09
		C33.95,39.31,33.98,39.33,34,39.35z"/>
	<path class="st8" d="M34.11,9.66c0.79-0.58,1.69-0.98,2.51-1.5c0.24-0.15,0.42-0.08,0.63,0.04c1.81,1.05,3.62,2.09,5.43,3.13
		c-0.01,0.09-0.02,0.18-0.03,0.27c-0.47,0.1-0.86,0.39-1.28,0.6c-1.09,0.56-2.1,1.26-3.23,1.75c-0.17-0.01-0.35-0.01-0.52-0.02
		c-0.05-0.25,0.15-0.56-0.18-0.73c-0.41-0.21-0.35-0.97-1.02-0.88c-0.01,0-0.04-0.11-0.04-0.17c-0.01-0.37-0.28-0.59-0.5-0.84
		c-0.25-0.28-0.63-0.54-0.7-0.86C35.03,9.81,34.58,9.76,34.11,9.66z"/>
	<path class="st2" d="M42.65,11.6c0.01-0.09,0.02-0.18,0.03-0.27c0.34,0.56,0.17,1.18,0.17,1.76c0,3.8-0.05,7.61-0.09,11.41
		c-1.47-0.81-2.93-1.61-4.4-2.42c-0.04-0.03-0.08-0.06-0.12-0.09c-0.05-0.03-0.09-0.07-0.14-0.1c-0.17-0.28-0.39-0.46-0.74-0.4
		c0,0-0.01,0-0.01,0c-0.02-0.43,0.07-0.6,0.6-0.55c0.4,0.04,0.7,0.38,1.18,0.23c0.93-0.29,1.92-0.38,2.89-0.38
		c0.51,0,0.62-0.14,0.62-0.57c-0.01-0.62,0-1.25-0.01-1.87C42.65,16.09,42.65,13.85,42.65,11.6z"/>
	<path class="st11" d="M4.47,20.48c0.44,0.28,0.2,0.72,0.2,1.08c0.01,0.44,0.15,0.55,0.58,0.57c1.94,0.07,3.87-0.16,5.81-0.14
		c0.38,0,0.66-0.39,1.06-0.25c-0.13,0.1-0.26,0.22-0.4,0.28c-1.29,0.58-2.44,1.41-3.69,2.06c-0.26,0.13-0.62,0.2-0.66,0.59
		c0,4.36,0,8.73,0,13.09c-0.27-0.18-0.14-0.46-0.14-0.68c-0.01-3.97-0.02-7.94,0-11.91c0-0.47-0.16-0.71-0.56-0.91
		c-0.64-0.31-1.24-0.7-1.87-1.01c-0.27-0.13-0.36-0.31-0.36-0.59C4.45,21.94,4.46,21.21,4.47,20.48z M4.89,22.65
		c-0.01-0.03-0.02-0.09-0.04-0.1c-0.02-0.01-0.07,0.02-0.1,0.04c0.01,0.03,0.02,0.09,0.04,0.1C4.81,22.7,4.86,22.66,4.89,22.65z"/>
	<path class="st2" d="M28.47,36.42c-0.29,0.12-0.28,0.38-0.28,0.63c0,1.38,0,2.75,0.01,4.13c0.01,0.8,0.77,1.42,1.54,1.26
		c0.86-0.17,1.71-0.06,2.57,0.01c0.41,0.04,0.78-0.07,1.16-0.17c0.3-0.08,0.39,0.02,0.38,0.29c-0.23,0.28-0.58,0.37-0.88,0.53
		c-0.04,0.03-0.07,0.06-0.11,0.09c-1.49,0.85-2.99,1.69-4.48,2.54c-0.19,0.11-0.35,0.23-0.54,0.02c0.4-0.11,0.24-0.44,0.24-0.68
		c0.01-2.95,0-5.9,0-8.85C28.25,36.19,28.37,36.28,28.47,36.42z"/>
	<path class="st5" d="M34.11,9.66c0.48,0.09,0.93,0.15,1.07,0.79c0.07,0.32,0.45,0.58,0.7,0.86c0.22,0.25,0.49,0.46,0.5,0.84
		c0,0.06,0.04,0.17,0.04,0.17c0.67-0.09,0.61,0.67,1.02,0.88c0.33,0.17,0.13,0.48,0.18,0.73c0,0.09,0,0.19,0,0.28
		c-0.02,0.01-0.05,0.02-0.08,0.01c-0.1-0.02-0.25-0.01-0.3-0.07c-0.56-0.68-1.05-1.42-1.66-2.03c-0.53-0.54-0.73-1.37-1.49-1.69
		c-0.03-0.16,0.08-0.36-0.11-0.49c-0.01-0.03-0.01-0.06-0.01-0.09c-0.01-0.04-0.01-0.08-0.02-0.13C34,9.71,34.05,9.68,34.11,9.66z"
		/>
	<path class="st9" d="M32.85,43.18c0.04-0.03,0.07-0.06,0.11-0.09C32.92,43.13,32.89,43.16,32.85,43.18z"/>
	<path class="st12" d="M28.08,12.95c1.75-0.96,3.51-1.92,5.26-2.88c0.17-0.09,0.32-0.2,0.52-0.17c0,1.57-0.01,3.13,0,4.7
		c0,0.24-0.07,0.5,0.09,0.73c0,0.17,0,0.34,0.01,0.51c-0.13,0.13-0.13,0.25,0.01,0.37c0.04,0.04,0.09,0.08,0.13,0.11
		c0,0.68,0,1.35,0,2.03c-0.45,0.05-0.96,0.05-0.47,0.72c0.13,0.17,0.11,0.34-0.16,0.41c-1.52,0.42-2.89,1.18-4.28,1.89
		c-0.76,0.38-0.85,0.31-0.88-0.57c-0.01-0.23,0.17-0.57-0.23-0.68c0-0.34,0-0.68,0-1.02c0.13-0.02,0.24-0.05,0.22-0.21
		c-0.02-0.12-0.12-0.14-0.22-0.15c-0.01-1.59-0.02-3.18-0.03-4.77c0-0.09,0-0.18,0-0.28C28.06,13.44,28.07,13.19,28.08,12.95z"/>
	<path class="st10" d="M28.08,19.09c0,0.34,0,0.68,0,1.02c0,2,0,4.01,0,6.01c-0.69-0.09-1.09-0.76-1.77-0.86
		c-0.03-0.01-0.07-0.02-0.1-0.01c-0.09-0.15-0.21-0.25-0.39-0.25c-0.2-0.24-0.46-0.4-0.76-0.49c0-0.83,0.01-1.65,0-2.48
		c0-0.21,0.08-0.48-0.26-0.54c0.04-0.12,0.42-0.21,0.02-0.38c-0.34-0.15-0.66-0.35-0.99-0.53c-0.84-0.44-1.67-0.91-2.44-1.46
		c0.21-0.09,0.43-0.24,0.63-0.01c0.51,0.59,1.33,0.43,1.92,0.84c0.17,0.12,0.43-0.05,0.54-0.22c0.24-0.37,0.54-0.35,0.87-0.2
		c0.28,0.13,0.57,0.1,0.86,0.09c0.37,0,0.75-0.05,0.97,0.36c0.26-0.26,0.04-0.59,0.24-0.8c0.26,0.1,0.07,0.38,0.28,0.5
		c0.23-0.13,0.14-0.36,0.13-0.54c-0.08-1.61,0.19-3.21,0.13-4.82c0-0.13,0-0.25,0.1-0.35c0.01,1.59,0.02,3.18,0.03,4.77
		C28.08,18.85,28.08,18.97,28.08,19.09z"/>
	<path class="st13" d="M21.39,19.1c0.77,0.55,1.6,1.02,2.44,1.46c0.33,0.17,0.65,0.38,0.99,0.53c0.4,0.17,0.02,0.26-0.02,0.38
		c-1.07,0.54-2.14,1.09-3.14,1.77c-0.21,0.08-0.42,0.16-0.63,0.25c0-0.2,0.18-0.27,0.28-0.39c0.15-0.17,0.11-0.18-0.05-0.38
		c-0.44-0.57-0.94-1.21-1.06-1.89c-0.13-0.72-0.53-0.74-1.01-0.84c-0.23-0.05-0.61,0.1-0.61-0.25c0.01-0.35,0.42-0.33,0.69-0.37
		c0.27-0.04,0.73,0.33,0.78-0.12c0.04-0.44-0.48-0.2-0.75-0.27c-0.1-0.03-0.21-0.03-0.25-0.14c-0.26-0.67-0.58-0.32-0.95-0.09
		c-0.53,0.33-1.03,0.76-1.72,0.73c0.71-0.58,1.58-0.88,2.33-1.4c0.26-0.18,0.5-0.04,0.76,0.06C20.15,18.37,20.64,18.99,21.39,19.1z"
		/>
	<path class="st10" d="M28.08,12.95c-0.01,0.24-0.02,0.49-0.03,0.73c-0.15-0.23-0.19-0.47-0.12-0.73
		C27.98,12.95,28.03,12.95,28.08,12.95z"/>
	<path class="st12" d="M21.02,23.49c0.21-0.08,0.42-0.16,0.63-0.25c0.4,0.91,0.4,0.91-0.49,1.06c-0.02,0-0.04,0.06-0.06,0.11
		c0.05,0.03,0.1,0.08,0.15,0.08c0.26,0.03,0.67,0.03,0.69,0.27c0.03,0.32-0.3,0.55-0.59,0.73c-0.02,0.01-0.04,0.01-0.06,0.02
		c-0.13,0.02-0.27,0.05-0.23,0.22c0.05,0.2,0.22,0.16,0.36,0.13c0.3-0.08,0.6-0.21,0.87,0.05c-0.01,0.04-0.02,0.08-0.05,0.11
		c-0.32,0.1-0.21,0.37-0.22,0.58c-0.01,1.63,0.08,3.26-0.03,4.88c-0.08,1.08,0.34,1.62,1.26,2.03c0.59,0.26,1.23,0.52,1.67,1.05
		c-0.69,0.36-1.41,0.68-2.07,1.09c-0.97,0.59-1.94,1.18-2.96,1.68c-0.31-0.41-0.09-0.54,0.31-0.54c-0.03-0.26-0.32-0.25-0.32-0.52
		c0-1.79-0.39-3.54-0.65-5.3c-0.21-1.43-0.44-2.85-0.63-4.29c-0.04-0.32-0.42-0.62,0-0.93c-0.56-0.39,0.18-0.57,0.15-0.88
		C19.52,24.4,20.27,23.94,21.02,23.49z"/>
	<path class="st8" d="M7.36,24.67c0.05-0.39,0.41-0.46,0.66-0.59c1.25-0.65,2.4-1.48,3.69-2.06c0.15-0.07,0.27-0.19,0.4-0.28
		c0.29-0.13,0.58-0.25,0.88-0.38c0.06,0,0.13,0.01,0.19,0c0.75-0.23,1.06,0.07,1.52,0.73c0.54,0.77,1.1,1.53,1.61,2.33
		c0.14,0.22,0.46,0.25,0.72,0.35c0.35,0.14,0.35,0.34-0.02,0.48c-0.26-0.39-0.6-0.55-1.05-0.38c0.37,0.06,0.62,0.48,1.05,0.38
		c0.01,0.14,0.02,0.29,0.03,0.43c-0.96,0.69-2.04,1.17-3.05,1.77c-0.27,0.16-0.54,0.31-0.8,0.46c-1.49-0.85-2.97-1.72-4.49-2.53
		C8.25,25.15,7.91,24.71,7.36,24.67z"/>
	<path class="st11" d="M33.95,15.33c-0.17-0.23-0.09-0.48-0.09-0.73c0-1.57,0-3.13,0-4.7c0.04-0.02,0.08-0.03,0.12-0.05
		c0,0.03,0,0.06,0.01,0.09C33.97,11.74,33.96,13.53,33.95,15.33z"/>
	<path class="st7" d="M24.93,34.55c-0.44-0.53-1.08-0.79-1.67-1.05c-0.92-0.41-1.34-0.95-1.26-2.03c0.12-1.62,0.03-3.25,0.03-4.88
		c0-0.21-0.11-0.48,0.22-0.58c0.05,0.19-0.02,0.47,0.27,0.48c0.32,0.01,0.5,0.26,0.75,0.36c0.61,0.26,1.09,0.79,1.76,0.92
		c0.05,0.33,0.3,0.24,0.51,0.25l0,0c0.12,0.37,0.37,0.54,0.76,0.49c0.08,0.01,0.15,0.01,0.23,0.02c0.01,0.2,0.19,0.25,0.32,0.34
		c0.69,0.47,1.49,0.74,2.21,1.16c0.24,0.36,0.6,0.48,1,0.51c0.08,0,0.16,0.01,0.24,0.01c0.02,0.15,0.1,0.24,0.26,0.24c0,0,0,0,0,0
		c0.02,0.06,0.03,0.15,0.07,0.17c1.13,0.56,2.08,1.46,3.36,1.73c-0.11,1.67-0.02,3.34-0.05,5.02c-0.01,0.52-0.02,1.05-0.03,1.57
		c-0.21,0.1-0.38,0-0.56-0.09c-0.05-0.04-0.1-0.07-0.15-0.11c0,0,0,0,0,0c-0.07-0.17-0.19-0.24-0.37-0.22
		c-0.04-0.02-0.07-0.03-0.11-0.04c-0.08-0.16-0.2-0.25-0.39-0.24c-1.1-0.63-2.2-1.26-3.31-1.89c-0.18-0.1-0.37-0.18-0.56-0.27
		c-0.1-0.14-0.22-0.24-0.4-0.21c-0.7-0.41-1.33-0.94-2.14-1.16C25.68,34.72,25.38,34.5,24.93,34.55z"/>
	<path class="st13" d="M34,32.7c-1.28-0.27-2.23-1.17-3.36-1.73c-0.04-0.02-0.05-0.11-0.07-0.17c0.11-0.11,0.79,0.2,0.25-0.37
		c-0.26-0.27-0.04-0.55,0.07-0.81c0.05-0.13,0.25-0.24,0.17-0.38c-0.41-0.65,0.05-1.34-0.1-1.99c-0.04-0.2,0.05-0.43-0.09-0.61
		c-0.18-0.24-0.17-0.41,0.06-0.64c0.3-0.3,0.12-0.7-0.31-0.74c-0.27-0.03-0.54-0.02-0.81-0.03c1.11-0.74,2.3-1.33,3.47-1.96
		c0.49-0.26,0.76-0.56,0.69-1.16c-0.06-0.47-0.01-0.96-0.01-1.43c0-0.99,0-0.99,0.91-0.58c0.75,0.46,1.5,0.91,2.25,1.37
		c0.31,0.62,0.23,1.3,0.25,1.96c0.05,1.69-0.12,3.38,0.09,5.06c0.01,0.11-0.01,0.19-0.11,0.27c-0.37,0.29-0.35,0.57,0.02,0.84
		c0.29,0.21,0.38,0.4-0.01,0.58c-0.36,0.17-0.23,0.49-0.24,0.77C36.13,31.61,35.07,32.15,34,32.7z"/>
	<path class="st12" d="M37.13,21.47c-0.75-0.46-1.5-0.91-2.25-1.37c0.04-0.01,0.08-0.02,0.12-0.04c0.01,0,0.02-0.05,0.01-0.06
		c-0.41-0.45-1.16-0.69-0.9-1.53c0.25-0.1,0.37,0.26,0.62,0.18c1-0.32,2.05-0.21,3.07-0.28c1.61-0.11,3.23-0.03,4.85-0.03
		c0,0.62,0,1.25,0.01,1.87c0.01,0.43-0.1,0.57-0.62,0.57c-0.97,0.01-1.96,0.1-2.89,0.38c-0.48,0.15-0.77-0.19-1.18-0.23
		c-0.54-0.05-0.63,0.11-0.6,0.55C37.29,21.48,37.21,21.47,37.13,21.47z"/>
	<path class="st12" d="M37.37,21.49c0.35-0.06,0.57,0.13,0.74,0.4C37.81,21.86,37.58,21.69,37.37,21.49z"/>
	<path class="st12" d="M38.25,21.99c0.04,0.03,0.08,0.06,0.12,0.09C38.33,22.05,38.29,22.02,38.25,21.99z"/>
	<path class="st5" d="M11.96,20.39c-0.31-0.03-0.53-0.21-0.75-0.4C11.49,20.06,12,19.72,11.96,20.39z"/>
	<path class="st5" d="M11.5,19.09c0.18-0.16,0.32-0.31,0.51-0.13c0.03,0.03,0.05,0.14,0.03,0.16C11.88,19.27,11.71,19.26,11.5,19.09
		z"/>
	<path class="st5" d="M10.72,19.74c-0.18-0.01-0.31-0.1-0.4-0.25C10.52,19.47,10.71,19.46,10.72,19.74z"/>
	<path class="st5" d="M10.22,19.47c-0.18,0.01-0.31-0.09-0.4-0.23C10.01,19.22,10.2,19.2,10.22,19.47z"/>
	<path class="st2" d="M38.38,36.57c-0.06,0.31-0.23,0.26-0.45,0.17C38.04,36.49,38.23,36.6,38.38,36.57L38.38,36.57z"/>
	<path class="st2" d="M32.34,38.58c0.18-0.01,0.3,0.08,0.39,0.24C32.54,38.83,32.36,38.83,32.34,38.58z"/>
	<path class="st2" d="M32.84,38.86c0.18-0.02,0.31,0.05,0.37,0.22C33.05,39.08,32.87,39.09,32.84,38.86z"/>
	<path class="st2" d="M33.22,39.09c0.05,0.04,0.1,0.07,0.15,0.11C33.32,39.16,33.27,39.12,33.22,39.09z"/>
	<path class="st11" d="M42.64,18.34c-1.62,0-3.24-0.08-4.85,0.03c-1.02,0.07-2.07-0.04-3.07,0.28c-0.25,0.08-0.37-0.28-0.62-0.18
		c0-0.04,0-0.08,0-0.13c0-0.68,0-1.35,0-2.03c0.8-0.49,1.6-0.97,2.4-1.46c0.34-0.23,0.78-0.3,1.05-0.64
		c0.03,0.01,0.05,0.01,0.07-0.01c0.21-0.02,0.38-0.1,0.52-0.26c1.13-0.49,2.15-1.19,3.23-1.75c0.42-0.22,0.8-0.5,1.28-0.6
		C42.65,13.85,42.65,16.09,42.64,18.34z"/>
	<path class="st13" d="M38.14,13.96c-0.14,0.15-0.32,0.24-0.52,0.26c0-0.09,0-0.19,0-0.28C37.8,13.94,37.97,13.95,38.14,13.96z"/>
	<path class="st10" d="M4.89,22.65c-0.04,0.01-0.08,0.05-0.1,0.04c-0.02-0.01-0.03-0.06-0.04-0.1c0.03-0.01,0.08-0.05,0.1-0.04
		C4.87,22.56,4.88,22.61,4.89,22.65z"/>
	<path class="st7" d="M36.5,14.86c-0.8,0.49-1.6,0.97-2.4,1.46c-0.04-0.04-0.09-0.08-0.13-0.11c0-0.12-0.01-0.24-0.01-0.37
		c0-0.17,0-0.34-0.01-0.51c0.01-1.8,0.03-3.59,0.04-5.39c0.19,0.13,0.08,0.32,0.11,0.49c0.01,0.46-0.16,1.07,0.07,1.34
		c0.47,0.54,0.85,1.15,1.33,1.69C35.88,13.89,36.31,14.29,36.5,14.86z"/>
	<path class="st13" d="M36.5,14.86c-0.19-0.57-0.61-0.97-1-1.4c-0.47-0.53-0.86-1.14-1.33-1.69c-0.23-0.27-0.06-0.88-0.07-1.34
		c0.76,0.32,0.95,1.15,1.49,1.69c0.61,0.62,1.1,1.36,1.66,2.03c0.05,0.06,0.2,0.05,0.3,0.07C37.27,14.56,36.84,14.63,36.5,14.86z"/>
	<path class="st2" d="M34.1,18.34c0,0.04,0,0.08,0,0.13c-0.27,0.84,0.49,1.09,0.9,1.53c0.01,0.01,0,0.05-0.01,0.06
		c-0.04,0.02-0.08,0.03-0.12,0.04c-0.91-0.41-0.91-0.41-0.91,0.58c0,0.48-0.05,0.96,0.01,1.43c0.07,0.6-0.2,0.9-0.69,1.16
		c-1.17,0.63-2.36,1.22-3.47,1.96c0,0,0,0,0,0c-0.18,0.01-0.31,0.11-0.42,0.24c-0.44,0.21-0.88,0.43-1.32,0.64c0-2,0-4.01,0-6.01
		c0.41,0.11,0.23,0.45,0.23,0.68c0.03,0.89,0.12,0.96,0.88,0.57c1.39-0.71,2.77-1.46,4.28-1.89c0.27-0.08,0.29-0.24,0.16-0.41
		C33.14,18.39,33.65,18.39,34.1,18.34z"/>
	<path class="st2" d="M28.08,19.09c0-0.12,0-0.24,0-0.37c0.1,0.01,0.2,0.03,0.22,0.15C28.32,19.04,28.21,19.08,28.08,19.09z"/>
	<path class="st11" d="M33.95,15.84c0,0.12,0.01,0.24,0.01,0.37C33.82,16.09,33.82,15.96,33.95,15.84z"/>
	<path class="st5" d="M28.08,26.12c0.44-0.21,0.88-0.43,1.32-0.64c0.2,0.03,0.41,0.07,0.42-0.24c0,0,0,0,0,0
		c0.27,0.01,0.54,0,0.81,0.03c0.43,0.04,0.61,0.44,0.31,0.74c-0.23,0.23-0.24,0.4-0.06,0.64c0.14,0.18,0.05,0.41,0.09,0.61
		c0.15,0.66-0.32,1.34,0.1,1.99c0.08,0.13-0.12,0.25-0.17,0.38c-0.11,0.26-0.32,0.54-0.07,0.81c0.54,0.57-0.15,0.26-0.25,0.37
		c0,0,0,0,0,0c0.01-0.18-0.08-0.26-0.26-0.24c-0.08,0-0.16-0.01-0.24-0.01c-0.14-0.55-0.57-0.52-1-0.51
		c-0.72-0.42-1.52-0.69-2.21-1.16c-0.13-0.09-0.31-0.13-0.32-0.34c0.35-0.24,0.71,0.55,0.97,0.06c0.17-0.31,0.05-0.78,0.05-1.17
		c0-0.08,0.01-0.17,0-0.25c-0.07-0.38,0.05-0.66,0.53-0.79c-0.77-0.24-1.38-0.53-1.78-1.13C26.99,25.36,27.39,26.03,28.08,26.12z"/>
	<path class="st8" d="M26.31,25.26c0.4,0.6,1.01,0.89,1.78,1.13c-0.48,0.12-0.59,0.41-0.53,0.79c0.01,0.08,0,0.17,0,0.25
		c-0.01,0.4,0.11,0.86-0.05,1.17c-0.26,0.49-0.61-0.31-0.97-0.06c-0.08-0.01-0.15-0.01-0.23-0.02c-0.12-0.38-0.37-0.54-0.76-0.49
		c0,0,0,0,0,0c-0.03-0.36-0.31-0.23-0.51-0.25c-0.68-0.13-1.15-0.65-1.76-0.92c-0.25-0.11-0.43-0.36-0.75-0.36
		c-0.29-0.01-0.23-0.29-0.27-0.48c0.03-0.03,0.05-0.07,0.05-0.11c0.24-0.11,0.49-0.23,0.73-0.34c0.7-0.31,1.28-0.84,2.02-1.07
		c0.3,0.1,0.56,0.25,0.76,0.49c0.01,0.28,0.2,0.27,0.39,0.25C26.24,25.24,26.27,25.24,26.31,25.26z"/>
	<path class="st11" d="M25.05,24.5c-0.74,0.23-1.32,0.76-2.02,1.07c-0.24,0.11-0.49,0.22-0.73,0.34c-0.28-0.26-0.57-0.13-0.87-0.05
		c-0.14,0.04-0.31,0.07-0.36-0.13c-0.04-0.17,0.11-0.2,0.23-0.22c0.02,0,0.04-0.01,0.06-0.02c0.29-0.18,0.62-0.42,0.59-0.73
		c-0.02-0.23-0.43-0.24-0.69-0.27c-0.05-0.01-0.1-0.05-0.15-0.08c0.03-0.05,0.04-0.11,0.06-0.11c0.89-0.15,0.89-0.14,0.49-1.06
		c1-0.68,2.07-1.22,3.14-1.77c0.33,0.06,0.26,0.33,0.26,0.54C25.06,22.84,25.05,23.67,25.05,24.5z"/>
	<path class="st5" d="M26.21,25.24c-0.2,0.02-0.39,0.03-0.39-0.25C25.99,25,26.11,25.1,26.21,25.24z"/>
	<path class="st5" d="M17.01,25.25c-0.43,0.1-0.68-0.32-1.05-0.38C16.41,24.7,16.75,24.86,17.01,25.25L17.01,25.25z"/>
	<path class="st13" d="M29.07,30.03c0.43-0.02,0.86-0.05,1,0.51C29.67,30.51,29.31,30.39,29.07,30.03z"/>
	<path class="st5" d="M25.55,28.03c0.39-0.05,0.65,0.11,0.76,0.49C25.92,28.56,25.67,28.4,25.55,28.03z"/>
	<path class="st5" d="M25.04,27.78c0.2,0.02,0.48-0.11,0.51,0.25C25.34,28.02,25.09,28.1,25.04,27.78z"/>
	<path class="st13" d="M30.32,30.55c0.18-0.02,0.26,0.06,0.26,0.24C30.41,30.79,30.33,30.71,30.32,30.55z"/>
	<path class="st13" d="M29.81,25.24c0,0.31-0.22,0.27-0.42,0.24C29.51,25.35,29.63,25.25,29.81,25.24z"/>
</g>
</svg>
