<svg width="21" height="19" viewBox="0 0 21 19" fill="none" xmlns="http://www.w3.org/2000/svg">
<path d="M8.56129 3.96629V0L0 7.68195L8.55722 15.3679V11.7755C12.2229 11.9466 14.9436 13.4543 16.6013 14.7115C18.487 16.1396 19.4442 17.5559 19.4523 17.5678L20.4013 19L20.7393 17.3292C20.9104 16.4818 21 15.6106 21 14.7393C21 8.20308 16.3569 4.19304 8.56127 3.96629H8.56129ZM7.148 10.3792V12.2251L2.08942 7.68197L7.148 3.14283V5.33881H7.85262C15.3101 5.33881 19.5867 8.76405 19.5867 14.7394C19.5867 14.994 19.5786 15.2526 19.5623 15.5111C17.8069 13.6374 13.8887 10.3832 7.85262 10.3832H7.148V10.3792Z" fill="white"/>
</svg>
