<svg width="33" height="33" viewBox="0 0 33 33" fill="none" xmlns="http://www.w3.org/2000/svg">
<path d="M10.9762 16.6083C10.9762 13.6644 13.364 11.2773 16.3103 11.2773C19.2566 11.2773 21.6457 13.6644 21.6457 16.6083C21.6457 19.5522 19.2566 21.9394 16.3103 21.9394C13.364 21.9394 10.9762 19.5522 10.9762 16.6083ZM8.092 16.6083C8.092 21.1436 11.7713 24.82 16.3103 24.82C20.8493 24.82 24.5287 21.1436 24.5287 16.6083C24.5287 12.073 20.8493 8.3967 16.3103 8.3967C11.7713 8.3967 8.092 12.073 8.092 16.6083ZM22.9334 8.0711C22.9333 8.45065 23.0458 8.82172 23.2567 9.13738C23.4676 9.45305 23.7674 9.69914 24.1183 9.84452C24.4692 9.98991 24.8553 10.0281 25.2279 9.95417C25.6005 9.88027 25.9428 9.69764 26.2115 9.42937C26.4802 9.16109 26.6633 8.81923 26.7375 8.447C26.8118 8.07478 26.7739 7.68891 26.6287 7.3382C26.4835 6.98748 26.2374 6.68767 25.9217 6.47668C25.6059 6.26569 25.2346 6.15299 24.8548 6.15284H24.854C24.3448 6.15308 23.8566 6.35523 23.4965 6.7149C23.1364 7.07457 22.9339 7.56235 22.9334 8.0711ZM9.84434 29.6253C8.28393 29.5543 7.4358 29.2946 6.87217 29.0752C6.12493 28.7845 5.59178 28.4384 5.03122 27.879C4.47066 27.3197 4.12368 26.7875 3.83405 26.0409C3.61434 25.4779 3.35442 24.6302 3.28348 23.0711C3.20589 21.3854 3.1904 20.8791 3.1904 16.6085C3.1904 12.3379 3.20717 11.8329 3.28348 10.1458C3.35455 8.58668 3.61639 7.74064 3.83405 7.17607C4.12496 6.42944 4.47143 5.89672 5.03122 5.33662C5.59101 4.77652 6.12365 4.42981 6.87217 4.14043C7.43554 3.92089 8.28393 3.66118 9.84434 3.5903C11.5314 3.51278 12.0382 3.4973 16.3103 3.4973C20.5825 3.4973 21.0898 3.51406 22.7782 3.5903C24.3386 3.66131 25.1854 3.92294 25.7504 4.14043C26.4976 4.42981 27.0308 4.77729 27.5914 5.33662C28.1519 5.89595 28.4976 6.42944 28.7885 7.17607C29.0082 7.73898 29.2682 8.58668 29.3391 10.1458C29.4167 11.8329 29.4322 12.3379 29.4322 16.6085C29.4322 20.8791 29.4167 21.384 29.3391 23.0711C29.268 24.6302 29.0068 25.4777 28.7885 26.0409C28.4976 26.7875 28.1511 27.3202 27.5914 27.879C27.0316 28.4378 26.4976 28.7845 25.7504 29.0752C25.187 29.2948 24.3386 29.5545 22.7782 29.6253C21.0912 29.7029 20.5844 29.7183 16.3103 29.7183C12.0362 29.7183 11.5309 29.7029 9.84434 29.6253ZM9.71182 0.713302C8.008 0.790831 6.84374 1.06077 5.82698 1.45609C4.77399 1.86433 3.88258 2.41202 2.99181 3.30066C2.10104 4.1893 1.55431 5.08139 1.14574 6.13352C0.7501 7.1501 0.479937 8.31277 0.402346 10.0152C0.323473 11.7203 0.30542 12.2655 0.30542 16.6083C0.30542 20.9512 0.323473 21.4963 0.402346 23.2015C0.479937 24.904 0.7501 26.0666 1.14574 27.0831C1.55431 28.1346 2.10117 29.0278 2.99181 29.916C3.88245 30.8043 4.77399 31.3512 5.82698 31.7606C6.84566 32.1559 8.008 32.4258 9.71182 32.5034C11.4192 32.5809 11.9639 32.6002 16.3103 32.6002C20.6567 32.6002 21.2023 32.5822 22.9088 32.5034C24.6128 32.4258 25.7763 32.1559 26.7937 31.7606C27.846 31.3512 28.7381 30.8046 29.6288 29.916C30.5196 29.0274 31.0652 28.1346 31.4749 27.0831C31.8706 26.0666 32.142 24.9039 32.2183 23.2015C32.2959 21.4951 32.3139 20.9512 32.3139 16.6083C32.3139 12.2655 32.2959 11.7203 32.2183 10.0152C32.1407 8.31264 31.8706 7.14946 31.4749 6.13352C31.0652 5.08203 30.5182 4.1907 29.6288 3.30066C28.7395 2.41062 27.846 1.86433 26.7949 1.45609C25.7763 1.06077 24.6126 0.789551 22.9101 0.713302C21.2036 0.635773 20.658 0.616455 16.3116 0.616455C11.9652 0.616455 11.4192 0.634494 9.71182 0.713302Z" fill="white"/>
</svg>
