<svg width="1683" height="573" viewBox="0 0 1683 573" fill="none" xmlns="http://www.w3.org/2000/svg">
<g opacity="0.4" filter="url(#filter0_f_2855_5225)">
<path fill-rule="evenodd" clip-rule="evenodd" d="M694.554 161.65C722.521 133.437 750.543 105.169 778.679 76.7903H778.705C776.423 74.5865 774.167 72.4157 771.932 70.2651L771.924 70.2569L771.921 70.2542L771.915 70.2484C766.775 65.3014 761.745 60.4609 756.765 55.5704C743.853 42.9157 728.394 36.2282 710.338 35.7396C694.108 35.3023 679.627 39.2119 667.693 51.275C658.16 60.9026 648.626 70.5284 639.09 80.1522L651.55 112.032L617.271 102.166C569.355 150.491 521.382 198.757 473.268 246.909C464.111 256.066 459.816 266.354 459.996 279.06C460.201 293.875 460.124 308.691 460.021 323.506C459.944 335.338 463.957 345.24 472.496 353.522C478.729 359.511 484.797 365.654 490.863 371.796C494.385 375.361 497.906 378.925 501.458 382.459C516.813 397.764 532.173 413.063 547.532 428.362L547.54 428.37C573.427 454.157 599.314 479.942 625.178 505.753L667.026 489.538L654.429 534.966C658.697 539.232 662.964 543.499 667.23 547.767C675.692 556.255 685.492 560.191 697.323 560.113L697.355 560.113H697.357H697.36C720.702 559.933 744.019 559.753 767.336 560.011C780.891 560.165 791.745 555.458 801.262 545.71C835.411 510.71 869.707 475.869 904.006 441.026C917.421 427.397 930.837 413.768 944.245 400.129C949.464 394.82 954.646 389.487 959.886 384.094C962.186 381.727 964.497 379.348 966.828 376.954C966.248 376.328 965.705 375.718 965.178 375.125L965.177 375.124C964.255 374.087 963.378 373.103 962.43 372.17C959.762 369.536 957.066 366.929 954.37 364.323C950.775 360.848 947.181 357.373 943.653 353.831C931.539 341.639 916.981 334.875 899.825 333.872C883.518 332.894 868.934 336.958 857.102 348.944C820.398 386.188 783.669 423.355 746.913 460.522C743.555 463.917 740.106 467.208 736.63 470.525L736.63 470.525L736.627 470.528C735.206 471.884 733.781 473.244 732.355 474.617C692.525 435.277 652.635 395.89 612.645 356.415L592.405 375.922L580.618 324.802C572.566 316.855 564.51 308.904 556.449 300.949C602.348 254.667 648.138 208.474 694.077 162.131L694.457 161.749L694.554 161.65Z" fill="black"/>
<path fill-rule="evenodd" clip-rule="evenodd" d="M980.279 386.657L979.949 386.99C941.371 425.996 902.794 465.002 864.126 504.098H864.151C866.724 506.727 869.24 509.325 871.727 511.893L871.728 511.894C877.148 517.491 882.428 522.943 887.84 528.25C905.717 545.74 927.168 550.37 951.114 545.148C960.992 542.996 968.529 537.279 975.563 530.573L987.37 454.484L1019.08 486.746C1068.68 436.718 1118.37 386.773 1168.1 336.86C1175.89 329.041 1179.8 319.935 1179.8 309.03C1179.81 303.029 1179.79 297.024 1179.78 291.019V291.017V291.015V291.011C1179.75 279.748 1179.72 268.483 1179.85 257.228C1179.98 245.319 1175.79 235.648 1167.25 227.288C1149.78 210.168 1132.44 192.907 1115.1 175.647C1106.81 167.392 1098.52 159.136 1090.21 150.897C1082.9 143.646 1075.59 136.401 1068.27 129.158L1019.95 139.896L1027.95 89.2347C1009.93 71.3634 991.934 53.4596 974.031 35.4614C964.18 25.5331 953.326 20.3374 939.282 20.6203C918.654 21.0319 898 20.9547 877.346 20.6203C863.405 20.4146 852.243 25.3273 842.417 35.2299C798.183 79.9485 753.793 124.512 709.403 169.076L709.28 169.2L709.223 169.257C699.417 179.101 689.612 188.944 679.809 198.79C678.671 199.945 677.394 200.962 676.087 202.003L676.087 202.003L676.087 202.003C675.444 202.514 674.794 203.031 674.15 203.574C676.583 206.251 678.968 208.841 681.308 211.382L681.309 211.382L681.309 211.383L681.31 211.384C686.567 217.09 691.594 222.547 696.399 228.189C715.201 250.283 761.447 254.681 785.394 229.346C790.26 224.202 795.15 219.081 800.06 213.979L807.047 169.729L825.335 188.017C838.702 174.421 852.158 160.908 865.616 147.393C877.002 135.959 888.389 124.523 899.724 113.036C901.42 111.327 903.117 109.624 904.756 107.978L904.759 107.975L904.759 107.975L904.765 107.969C906.527 106.201 908.223 104.499 909.78 102.928C937.404 130.383 964.983 157.794 992.562 185.204C1023.97 216.418 1055.37 247.631 1086.84 278.911C1051.27 314.873 1015.78 350.765 980.279 386.657Z" fill="black"/>
</g>
<path fill-rule="evenodd" clip-rule="evenodd" d="M687.704 154.795C715.676 126.577 743.703 98.3031 771.844 69.9192H771.87C769.587 67.7138 767.329 65.5415 765.093 63.3894L765.088 63.3841L765.087 63.3837C759.944 58.4344 754.912 53.5919 749.93 48.6993C737.018 36.0446 721.56 29.3572 703.504 28.8685C687.274 28.4312 672.793 32.3408 660.858 44.4039C651.326 54.0313 641.792 63.657 632.256 73.2806L644.715 105.156L610.44 95.291C562.523 143.618 514.549 191.884 466.433 240.038C457.277 249.194 452.981 259.483 453.161 272.189C453.367 287.004 453.29 301.82 453.187 316.635C453.11 328.467 457.122 338.369 465.662 346.651C471.894 352.64 477.963 358.783 484.029 364.925C487.55 368.49 491.071 372.054 494.623 375.587C509.975 390.889 525.331 406.185 540.686 421.48L540.696 421.49L540.779 421.573C566.641 447.334 592.502 473.094 618.341 498.879L660.195 482.662L647.596 528.097C651.864 532.363 656.13 536.629 660.395 540.896C668.857 549.384 678.657 553.32 690.489 553.242L690.521 553.242H690.523H690.525C713.868 553.062 737.185 552.882 760.501 553.139C774.056 553.294 784.911 548.587 794.427 538.839C828.572 503.844 862.862 469.008 897.156 434.17L897.171 434.155L897.187 434.138L897.203 434.122C910.608 420.504 924.013 406.886 937.41 393.258C942.626 387.953 947.804 382.623 953.04 377.234L953.05 377.225L953.062 377.211C955.359 374.848 957.667 372.473 959.993 370.083C959.413 369.456 958.87 368.846 958.342 368.253C957.42 367.216 956.544 366.232 955.595 365.299C952.928 362.665 950.232 360.058 947.536 357.452C943.941 353.977 940.346 350.502 936.819 346.96C924.704 334.768 910.146 328.004 892.99 327.001C876.683 326.023 862.099 330.087 850.268 342.073C813.564 379.317 776.834 416.484 740.079 453.651C736.72 457.046 733.271 460.337 729.796 463.653L729.795 463.654L729.793 463.656C728.372 465.012 726.946 466.373 725.521 467.746C685.691 428.406 645.801 389.019 605.811 349.544L585.571 369.051L573.783 317.93C565.732 309.984 557.676 302.033 549.615 294.078C595.626 247.683 641.527 201.378 687.579 154.921L687.661 154.838L687.704 154.795Z" fill="#D9D9D9"/>
<path fill-rule="evenodd" clip-rule="evenodd" d="M973.245 379.977L973.096 380.128C934.52 419.132 895.943 458.136 857.277 497.231H857.303C859.875 499.859 862.391 502.458 864.878 505.025L864.878 505.026L864.878 505.026C870.299 510.623 875.579 516.075 880.992 521.383C898.868 538.873 920.319 543.503 944.265 538.281C954.143 536.129 961.68 530.412 968.715 523.706L980.522 447.617L1012.23 479.879C1061.84 429.851 1111.52 379.906 1161.25 329.993C1169.04 322.174 1172.95 313.068 1172.95 302.163C1172.96 296.161 1172.94 290.156 1172.93 284.15V284.148V284.146C1172.9 272.883 1172.87 261.616 1173 250.361C1173.13 238.452 1168.94 228.781 1160.4 220.421C1142.93 203.301 1125.59 186.04 1108.26 168.781L1108.24 168.77L1108.23 168.759C1099.95 160.51 1091.66 152.262 1083.36 144.03C1076.06 136.779 1068.74 129.534 1061.42 122.291L1013.1 133.029L1021.1 82.3664C1003.08 64.4955 985.085 46.5921 967.183 28.5942C957.332 18.6659 946.477 13.4702 932.434 13.7532C911.806 14.1647 891.152 14.0875 870.498 13.7532C856.557 13.5474 845.394 18.4601 835.569 28.3627C791.335 73.0801 746.947 117.643 702.558 162.205L702.555 162.208C692.69 172.112 682.824 182.017 672.96 191.922C671.822 193.078 670.545 194.095 669.238 195.135L669.238 195.135L669.238 195.135C668.596 195.647 667.946 196.164 667.302 196.707C669.734 199.384 672.12 201.974 674.46 204.515L674.46 204.515L674.461 204.516C679.718 210.223 684.745 215.68 689.55 221.322C708.352 243.416 754.599 247.814 778.545 222.479C783.411 217.335 788.301 212.214 793.212 207.112L800.198 162.862L818.487 181.15C831.853 167.555 845.308 154.043 858.764 140.529L858.767 140.527C870.153 129.092 881.54 117.656 892.875 106.169C894.572 104.459 896.27 102.755 897.91 101.109L897.915 101.103L897.931 101.087C899.688 99.3239 901.378 97.627 902.932 96.0603C930.375 123.336 957.774 150.568 985.172 177.799L986.249 178.869L995.921 188.482C1023.92 216.315 1051.93 244.153 1080 272.043C1046.81 305.591 1013.7 339.078 980.581 372.56L973.245 379.977Z" fill="#D9D9D9"/>
<path fill-rule="evenodd" clip-rule="evenodd" d="M674.192 141.037C702.163 112.821 730.189 84.5479 758.329 56.1653H758.354C756.083 53.9709 753.836 51.8093 751.611 49.6677L751.586 49.6433L751.574 49.6319L751.571 49.6295L751.563 49.622C746.423 44.6755 741.394 39.8354 736.414 34.9454C723.503 22.2907 708.044 15.6032 689.988 15.1146C673.758 14.6773 659.277 18.5869 647.343 30.65C637.81 40.2776 628.276 49.9034 618.74 59.5272L631.2 91.407L596.921 81.5407C549.005 129.866 501.032 178.132 452.918 226.284C443.761 235.441 439.466 245.729 439.646 258.435C439.851 273.25 439.774 288.066 439.671 302.881C439.594 314.713 443.607 324.615 452.146 332.897C458.379 338.886 464.447 345.029 470.513 351.171C474.035 354.736 477.556 358.3 481.108 361.834C496.436 377.112 511.768 392.384 527.1 407.656L527.18 407.736L527.238 407.793L527.271 407.826C553.132 433.586 578.991 459.345 604.828 485.128L646.677 468.913L634.08 514.342C638.347 518.608 642.614 522.875 646.88 527.142C655.342 535.63 665.142 539.566 676.973 539.488L677.005 539.488H677.007H677.01C700.352 539.308 723.669 539.128 746.986 539.386C760.541 539.54 771.395 534.833 780.912 525.085C815.056 490.09 849.347 455.254 883.64 420.416L883.656 420.401L883.672 420.384L883.687 420.368C897.092 406.751 910.498 393.132 923.895 379.504C929.113 374.197 934.293 368.865 939.531 363.473L939.533 363.471L939.535 363.47L939.588 363.415C941.871 361.065 944.165 358.704 946.478 356.329C945.898 355.703 945.355 355.093 944.828 354.5L944.827 354.499C943.904 353.462 943.028 352.478 942.079 351.545C939.412 348.91 936.716 346.304 934.02 343.698C930.425 340.223 926.831 336.748 923.303 333.206C911.189 321.014 896.63 314.25 879.475 313.247C863.167 312.269 848.584 316.333 836.752 328.319C800.048 365.563 763.319 402.73 726.563 439.897C723.205 443.292 719.756 446.583 716.28 449.9L716.278 449.902L716.274 449.905C714.854 451.26 713.43 452.62 712.005 453.992C672.175 414.653 632.286 375.266 592.296 335.79L572.056 355.297L560.269 304.178C552.217 296.231 544.161 288.279 536.099 280.324C582.121 233.918 628.034 187.601 674.097 141.133L674.192 141.037Z" fill="white"/>
<path fill-rule="evenodd" clip-rule="evenodd" d="M959.295 366.69C920.819 405.593 882.343 444.496 843.777 483.488H843.802C846.375 486.118 848.891 488.716 851.378 491.285C856.799 496.882 862.079 502.334 867.491 507.641C885.367 525.131 906.819 529.76 930.765 524.539C940.643 522.387 948.18 516.67 955.214 509.964L967.021 433.875L998.727 466.137C1048.34 416.109 1098.02 366.164 1147.75 316.251C1155.54 308.431 1159.45 299.326 1159.45 288.42C1159.46 282.419 1159.44 276.414 1159.43 270.408V270.406V270.404V270.4C1159.4 259.138 1159.37 247.873 1159.5 236.618C1159.63 224.71 1155.44 215.038 1146.9 206.679C1129.43 189.56 1112.09 172.3 1094.76 155.042L1094.76 155.04L1094.75 155.035L1094.74 155.024L1094.73 155.013C1086.45 146.766 1078.16 138.519 1069.86 130.288C1062.55 123.037 1055.24 115.792 1047.92 108.549L999.603 119.287L1007.6 68.6274C989.578 50.7554 971.586 32.851 953.682 14.852C943.831 4.92368 932.977 -0.271959 918.933 0.0109715C898.305 0.422507 877.651 0.345344 856.997 0.0109715C843.056 -0.194796 831.893 4.71791 822.068 14.6205C777.836 59.3365 733.449 103.898 689.062 148.459L689.054 148.467C679.189 158.371 669.323 168.275 659.46 178.18C658.322 179.336 657.045 180.352 655.738 181.393L655.738 181.393L655.738 181.393C655.095 181.905 654.445 182.422 653.801 182.964C656.233 185.642 658.619 188.232 660.959 190.772L660.96 190.773L660.96 190.773C666.217 196.48 671.245 201.937 676.05 207.579C694.852 229.674 741.098 234.072 765.045 208.737C769.912 203.591 774.804 198.469 779.716 193.365L786.702 149.12L804.988 167.406C818.354 153.811 831.808 140.299 845.264 126.786L845.266 126.784C856.652 115.35 868.039 103.914 879.374 92.4265C881.072 90.7163 882.77 89.0121 884.41 87.3657L884.416 87.3603L884.431 87.3444C886.188 85.5812 887.878 83.8846 889.431 82.3181C915.638 108.365 941.804 134.371 967.967 160.375L968.916 161.318L973.593 165.967L979.168 171.508L983.859 176.17C1011.38 203.526 1038.91 230.888 1066.49 258.301C1030.82 294.375 995.209 330.377 959.602 366.379L959.295 366.69Z" fill="white"/>
<g opacity="0.4" filter="url(#filter1_f_2855_5225)">
<path d="M306.246 146.041L285.629 118.552L282.193 539.475L306.246 567.822V146.041Z" fill="black"/>
<path d="M469.46 32.6497L449.703 6.87891V121.129L469.46 146.041V32.6497Z" fill="black"/>
<path d="M449.703 121.129H286.488L306.246 146.041L469.46 146.041L449.703 121.129Z" fill="black"/>
<path d="M286.488 542.911H167.942L187.7 567.822L306.246 567.822L286.488 542.911Z" fill="black"/>
<path d="M285.629 113.398H3.86914L11.6004 118.552H278.757L285.629 113.398Z" fill="black"/>
</g>
<path d="M3.01318 114.157V0.0117188H447.99V114.157H284.251V536.266H165.995V234.431L284.251 114.157H3.01318Z" fill="white"/>
<path d="M304.52 139.174L283.903 111.685L280.467 532.607L304.52 560.955V139.174Z" fill="#D9D9D9"/>
<path d="M467.735 25.7825L447.977 0.0117188V114.262L467.735 139.174V25.7825Z" fill="#D9D9D9"/>
<path d="M447.977 114.262H284.762L304.52 139.174L467.735 139.174L447.977 114.262Z" fill="#B0B0B0"/>
<path d="M284.762 536.043H166.217L185.974 560.955L304.52 560.955L284.762 536.043Z" fill="#B0B0B0"/>
<g opacity="0.4" filter="url(#filter2_f_2855_5225)">
<path d="M1413.54 198.438H1283.83L1288.12 206.17H1417.84L1413.54 198.438Z" fill="black"/>
<path d="M1491.71 286.918L1467.66 320.42V544.627L1491.71 569.538V286.918Z" fill="black"/>
<path d="M1678.98 33.5055L1659.22 8.59375L1491.71 284.341V342.755L1678.98 33.5055Z" fill="black"/>
<path d="M1471.96 544.626H1353.41L1373.17 569.537L1491.71 569.538L1471.96 544.626Z" fill="black"/>
<path d="M1423.85 181.258L1338.81 25.7743L1325.92 17.184L1419.55 191.566L1423.85 181.258Z" fill="black"/>
</g>
<path d="M1336.24 24.0527L1305.32 0L1414.41 199.294L1423 183.831L1336.24 24.0527Z" fill="#D9D9D9"/>
<path d="M1490.01 278.324L1465.96 311.826V536.033L1490.01 560.945V278.324Z" fill="#D9D9D9"/>
<path d="M1677.28 24.9117L1657.52 0L1490.01 275.747V334.161L1677.28 24.9117Z" fill="#D9D9D9"/>
<path d="M1470.25 536.032H1351.71L1371.46 560.944L1490.01 560.945L1470.25 536.032Z" fill="#B0B0B0"/>
<path d="M1166.81 0.0117188H1305.47L1414.41 199.192H1284.13L1166.81 0.0117188ZM1414.41 199.192L1524.87 0.0117188H1657.43L1470.02 312.571V536.266H1351.18V312.571L1414.41 199.192Z" fill="white"/>
<defs>
<filter id="filter0_f_2855_5225" x="456.657" y="17.276" width="726.53" height="546.171" filterUnits="userSpaceOnUse" color-interpolation-filters="sRGB">
<feFlood flood-opacity="0" result="BackgroundImageFix"/>
<feBlend mode="normal" in="SourceGraphic" in2="BackgroundImageFix" result="shape"/>
<feGaussianBlur stdDeviation="1.66669" result="effect1_foregroundBlur_2855_5225"/>
</filter>
<filter id="filter1_f_2855_5225" x="0.535751" y="3.54552" width="472.258" height="567.612" filterUnits="userSpaceOnUse" color-interpolation-filters="sRGB">
<feFlood flood-opacity="0" result="BackgroundImageFix"/>
<feBlend mode="normal" in="SourceGraphic" in2="BackgroundImageFix" result="shape"/>
<feGaussianBlur stdDeviation="1.66669" result="effect1_foregroundBlur_2855_5225"/>
</filter>
<filter id="filter2_f_2855_5225" x="1280.49" y="5.26036" width="401.819" height="567.612" filterUnits="userSpaceOnUse" color-interpolation-filters="sRGB">
<feFlood flood-opacity="0" result="BackgroundImageFix"/>
<feBlend mode="normal" in="SourceGraphic" in2="BackgroundImageFix" result="shape"/>
<feGaussianBlur stdDeviation="1.66669" result="effect1_foregroundBlur_2855_5225"/>
</filter>
</defs>
</svg>
