<svg width="30" height="26" viewBox="0 0 30 26" fill="none" xmlns="http://www.w3.org/2000/svg">
<path d="M2.35486 11.3943C2.35486 11.3943 15.3717 5.91788 19.8861 3.9895C21.6167 3.21822 27.4855 0.749883 27.4855 0.749883C27.4855 0.749883 30.1942 -0.329918 29.9685 2.29256C29.8932 3.37247 29.2913 7.15194 28.6894 11.24C27.7864 17.0251 26.8083 23.3499 26.8083 23.3499C26.8083 23.3499 26.6578 25.124 25.3788 25.4326C24.0997 25.7411 21.9928 24.3528 21.6167 24.0441C21.3156 23.8128 15.9736 20.3417 14.0173 18.6448C13.4906 18.182 12.8887 17.2565 14.0925 16.1766C16.8012 13.6312 20.0366 10.4687 21.9928 8.46329C22.8958 7.53764 23.7986 5.37792 20.0366 8.00041C14.6945 11.78 9.42756 15.3281 9.42756 15.3281C9.42756 15.3281 8.22367 16.0994 5.96645 15.4052C3.70913 14.7111 1.07568 13.7854 1.07568 13.7854C1.07568 13.7854 -0.730013 12.6285 2.35486 11.3943Z" fill="white"/>
</svg>
