<svg width="132" height="44" viewBox="0 0 132 44" fill="none" xmlns="http://www.w3.org/2000/svg">
<path fill-rule="evenodd" clip-rule="evenodd" d="M53.5524 12.0493C55.7834 9.79874 58.0187 7.54369 60.2632 5.27987H60.2653C60.083 5.10382 59.9028 4.93042 59.7243 4.75862L59.7242 4.7586C59.3138 4.36365 58.9123 3.97722 58.5147 3.5868C57.4845 2.57711 56.2511 2.04354 54.8105 2.00455C53.5155 1.96966 52.3602 2.2816 51.4079 3.24408C50.6473 4.01224 49.8867 4.78026 49.1258 5.54811L50.1187 8.08848L47.3872 7.30228C43.5633 11.1588 39.735 15.0105 35.8953 18.8532C35.1647 19.5837 34.822 20.4046 34.8364 21.4184C34.8528 22.6005 34.8466 23.7826 34.8384 24.9646C34.8323 25.9086 35.1524 26.6987 35.8337 27.3595C36.331 27.8374 36.8152 28.3275 37.2992 28.8175C37.5802 29.102 37.8611 29.3864 38.1445 29.6683C39.368 30.8878 40.5918 32.1068 41.8155 33.3257L41.8171 33.3273L41.8209 33.3311C43.8856 35.3877 45.9502 37.4443 48.013 39.5028L51.3539 38.2083L50.3483 41.8351C50.6893 42.1759 51.0302 42.5168 51.371 42.8578C52.0462 43.535 52.8281 43.849 53.7721 43.8429L53.7758 43.8428C55.638 43.8285 57.4981 43.8141 59.3582 43.8346C60.4397 43.847 61.3057 43.4714 62.065 42.6936C64.7898 39.901 67.5262 37.1211 70.2629 34.341L70.2725 34.3312C71.3396 33.2471 72.4067 32.163 73.4732 31.0781C73.8896 30.6546 74.303 30.2291 74.721 29.7989L74.722 29.7979C74.9053 29.6093 75.0894 29.4198 75.2751 29.2291C75.2288 29.1791 75.1855 29.1304 75.1434 29.0831C75.0698 29.0004 74.9999 28.9218 74.9242 28.8474C74.7113 28.6372 74.4962 28.4292 74.2811 28.2213C73.9943 27.944 73.7075 27.6668 73.426 27.3842C72.4595 26.4114 71.2979 25.8717 69.9291 25.7917C68.628 25.7137 67.4644 26.0379 66.5204 26.9943C63.5919 29.9658 60.6613 32.9313 57.7287 35.8967C57.4608 36.1676 57.1856 36.4302 56.9083 36.6948L56.9081 36.6949L56.908 36.6951L56.9077 36.6954L56.9073 36.6957C56.7942 36.8037 56.6807 36.912 56.5672 37.0213C53.3889 33.8822 50.2058 30.7392 47.0148 27.5892L45.3999 29.1456L44.4595 25.067L42.5321 23.1648C46.2051 19.4612 49.8694 15.7647 53.5457 12.0561L53.5524 12.0493Z" fill="white"/>
<path fill-rule="evenodd" clip-rule="evenodd" d="M84.8495 21.4099L67.0795 39.377H67.0815C67.2867 39.5867 67.4875 39.794 67.6859 39.9989L67.686 39.999C68.1185 40.4456 68.5397 40.8806 68.9716 41.304C70.3979 42.6995 72.1094 43.0689 74.02 42.6523C74.8075 42.4807 75.4085 42.0252 75.9694 41.4907L76.912 35.416L79.4433 37.9917C83.4012 34.0004 87.3649 30.0157 91.3324 26.0335C91.9543 25.4096 92.2662 24.6832 92.2662 23.813C92.2669 23.3342 92.2656 22.8551 92.2643 22.3759V22.3758V22.3756V22.375C92.262 21.4765 92.2596 20.5778 92.2703 19.6799C92.2805 18.7297 91.946 17.9581 91.2647 17.2911C89.8711 15.9253 88.4879 14.5482 87.1048 13.1713L87.1044 13.171C86.4427 12.5122 85.7811 11.8535 85.1184 11.1961C84.5357 10.618 83.9525 10.0405 83.3693 9.46313L79.5117 10.3204L80.1503 6.27601C78.7123 4.85017 77.2769 3.42175 75.8485 1.98578C75.0625 1.19363 74.1965 0.779082 73.076 0.801657C71.4301 0.834492 69.7822 0.828335 68.1343 0.801657C67.022 0.785239 66.1313 1.17721 65.3474 1.96731C61.8182 5.53511 58.2767 9.09056 54.7351 12.646L54.7345 12.6466C53.9474 13.4368 53.1603 14.227 52.3734 15.0173C52.2825 15.1095 52.1807 15.1906 52.0764 15.2736L52.0764 15.2736C52.0251 15.3144 51.9733 15.3557 51.9219 15.399C52.1159 15.6126 52.3063 15.8193 52.493 16.022L52.493 16.022C52.9125 16.4774 53.3136 16.9128 53.697 17.363C55.1972 19.1258 58.8871 19.4767 60.7977 17.4553C61.1855 17.0453 61.5752 16.6372 61.9666 16.2305L62.524 12.7L63.9832 14.1591C65.0501 13.0739 66.1241 11.9953 67.1982 10.9166L67.1983 10.9165L67.1991 10.9158C68.1073 10.0037 69.0156 9.09155 69.9197 8.17523C70.0548 8.03915 70.1899 7.90354 70.3205 7.7725L70.3214 7.77158L70.3217 7.7713C70.4624 7.63006 70.5977 7.49416 70.7221 7.36871L84.8495 21.4099Z" fill="white"/>
<path d="M0 9.90813V0.800781H35.5034V9.90813H22.4391V43.587H13.0038V19.5045L22.4391 9.90813H0Z" fill="white"/>
<path d="M92.8555 0.800781H103.918L112.61 16.6928H102.216L92.8555 0.800781ZM112.61 16.6928L121.424 0.800781H132L117.047 25.739V43.587H107.565V25.739L112.61 16.6928Z" fill="white"/>
</svg>
