<svg width="40" height="40" viewBox="0 0 40 40" fill="none" xmlns="http://www.w3.org/2000/svg">
<mask id="mask0_2146_823" style="mask-type:alpha" maskUnits="userSpaceOnUse" x="0" y="0" width="40" height="40">
<circle cx="20" cy="20" r="20" fill="#D9D9D9"/>
</mask>
<g mask="url(#mask0_2146_823)">
<circle cx="20" cy="20" r="20" fill="#483F51"/>
</g>
<g opacity="0.4" filter="url(#filter0_f_2146_823)">
<path fill-rule="evenodd" clip-rule="evenodd" d="M15.4833 15.4143L18.7683 12.1006H18.7693C18.6801 12.0144 18.5919 11.9295 18.5045 11.8454C18.3036 11.6521 18.1071 11.4629 17.9125 11.2718C17.4082 10.7776 16.8045 10.5164 16.0993 10.4974C15.4655 10.4803 14.9 10.633 14.4339 11.1041C14.0616 11.48 13.6893 11.8559 13.3169 12.2317L13.8036 13.4769L12.4647 13.0916C10.5934 14.9789 8.71986 16.8638 6.8408 18.7444C6.4832 19.102 6.31545 19.5038 6.32248 20C6.33051 20.5786 6.3275 21.1572 6.32348 21.7358C6.32047 22.1979 6.47717 22.5846 6.81067 22.908C7.05409 23.1419 7.29107 23.3818 7.52798 23.6217C7.66551 23.7609 7.80302 23.9001 7.94174 24.0381C8.54149 24.6359 9.14138 25.2335 9.74127 25.831C10.7523 26.8381 11.7633 27.8452 12.7734 28.8532L14.407 28.2202L13.9153 29.9935L14.4158 30.4941C14.7463 30.8256 15.129 30.9792 15.5911 30.9762L15.5923 30.9762H15.5923C16.504 30.9692 17.4147 30.9622 18.3253 30.9722C18.8547 30.9782 19.2786 30.7944 19.6503 30.4137C20.9841 29.0467 22.3236 27.6859 23.6632 26.325L23.6638 26.3244L23.6644 26.3238C24.1878 25.7921 24.7112 25.2603 25.2343 24.7282C25.4381 24.5209 25.6405 24.3126 25.8451 24.102L26.1163 23.8231C26.0936 23.7987 26.0724 23.7748 26.0518 23.7517L26.0518 23.7517C26.0158 23.7112 25.9816 23.6727 25.9445 23.6363C25.8404 23.5335 25.7352 23.4318 25.63 23.3301L25.6299 23.33L25.6297 23.3298C25.4893 23.1941 25.349 23.0584 25.2112 22.9201C24.7381 22.444 24.1695 22.1798 23.4995 22.1406C22.8627 22.1024 22.2931 22.2611 21.831 22.7292C20.3976 24.1838 18.9632 25.6353 17.5277 27.0868C17.3966 27.2194 17.2618 27.348 17.1261 27.4775L17.1258 27.4777C17.0704 27.5306 17.0148 27.5837 16.9592 27.6373C15.4034 26.1006 13.8453 24.5622 12.2833 23.0203L11.4919 23.783L11.031 21.7841L10.0894 20.8548C11.8882 19.041 13.6828 17.2306 15.4833 15.4143Z" fill="black"/>
<path fill-rule="evenodd" clip-rule="evenodd" d="M30.8048 19.9959L22.1068 28.7903H22.1078C22.2083 28.893 22.3065 28.9945 22.4037 29.0948L22.4037 29.0948C22.6154 29.3134 22.8216 29.5263 23.0329 29.7336C23.7311 30.4166 24.5688 30.5974 25.504 30.3935C25.8897 30.3095 26.1841 30.0863 26.4588 29.8244L26.9201 26.8511L28.1591 28.1118C30.0962 26.1583 32.0362 24.208 33.978 22.259C34.2824 21.9537 34.4351 21.5981 34.4351 21.1722C34.4354 20.9378 34.4348 20.7033 34.4342 20.4688V20.4687V20.4687V20.4683C34.433 20.0285 34.4319 19.5886 34.4371 19.1491C34.4421 18.684 34.2784 18.3063 33.9449 17.9798C33.2627 17.3112 32.5855 16.637 31.9084 15.963L31.9081 15.9626L31.9077 15.9623C31.5841 15.6401 31.2605 15.318 30.9364 14.9965C30.6508 14.7131 30.365 14.4301 30.0791 14.1471L28.1929 14.5662L28.5052 12.5887C27.8011 11.8906 27.0983 11.1913 26.399 10.4882C26.0143 10.1005 25.5904 9.89758 25.042 9.90863C24.2363 9.9247 23.4297 9.92169 22.6231 9.90863C22.0787 9.9006 21.6427 10.0925 21.259 10.4792C19.5315 12.2256 17.7979 13.9659 16.0644 15.7063L14.9085 16.8668C14.864 16.912 14.8142 16.9517 14.7631 16.9923L14.7631 16.9923C14.738 17.0123 14.7127 17.0325 14.6875 17.0537C14.7824 17.1582 14.8755 17.2592 14.9668 17.3583L14.967 17.3586L14.9671 17.3586C15.1724 17.5815 15.3687 17.7946 15.5564 18.015C16.2907 18.8779 18.0968 19.0496 19.032 18.0602C19.2214 17.8599 19.4118 17.6606 19.6029 17.462L19.8761 15.7319L20.5911 16.4469C21.1134 15.9157 21.6391 15.3877 22.1649 14.8597L22.165 14.8596L22.165 14.8596C22.6097 14.413 23.0544 13.9664 23.497 13.5178C23.5633 13.4511 23.6296 13.3845 23.6936 13.3203C23.7625 13.2511 23.8289 13.1845 23.8898 13.1231L30.8048 19.9959Z" fill="black"/>
</g>
<path fill-rule="evenodd" clip-rule="evenodd" d="M15.2079 15.1448L18.4929 11.831H18.4939C18.4047 11.7448 18.3165 11.6599 18.2291 11.5758C18.0282 11.3825 17.8317 11.1934 17.6371 11.0023C17.1328 10.5081 16.5291 10.2469 15.8239 10.2278C15.1901 10.2108 14.6246 10.3634 14.1585 10.8346C13.7862 11.2105 13.4139 11.5864 13.0416 11.9622L13.5282 13.2074L12.1893 12.822C10.318 14.7093 8.44447 16.5943 6.56541 18.4748C6.20781 18.8324 6.04006 19.2342 6.04709 19.7305C6.05512 20.3091 6.05211 20.8877 6.04809 21.4662C6.04508 21.9283 6.20178 22.3151 6.53528 22.6385C6.77869 22.8724 7.01568 23.1123 7.25259 23.3521C7.39012 23.4914 7.52763 23.6306 7.66635 23.7686C8.26609 24.3664 8.86599 24.9639 9.46587 25.5615L9.46775 25.5633L9.47467 25.5702C10.4828 26.5744 11.4909 27.5785 12.4981 28.5837L14.1316 27.9507L13.6399 29.724L14.1404 30.2245C14.4709 30.556 14.8536 30.7097 15.3157 30.7067L15.3169 30.7067H15.3169C16.2286 30.6997 17.1393 30.6926 18.0499 30.7027C18.5793 30.7087 19.0032 30.5249 19.3749 30.1442C20.7087 28.7772 22.0482 27.4164 23.3878 26.0554L23.3884 26.0548L23.389 26.0542C23.9124 25.5225 24.4358 24.9908 24.9589 24.4587C25.1627 24.2514 25.3651 24.0431 25.5697 23.8325L25.8409 23.5536C25.8182 23.5291 25.797 23.5053 25.7764 23.4821L25.7764 23.4821C25.7404 23.4416 25.7062 23.4032 25.6691 23.3668C25.565 23.264 25.4598 23.1623 25.3546 23.0606L25.3545 23.0604L25.3543 23.0603C25.214 22.9246 25.0736 22.7889 24.9358 22.6506C24.4627 22.1744 23.8941 21.9102 23.2241 21.8711C22.5873 21.8329 22.0177 21.9916 21.5557 22.4597C20.1222 23.9142 18.6878 25.3657 17.2524 26.8173C17.1212 26.9499 16.9864 27.0784 16.8507 27.208L16.8504 27.2082C16.795 27.2611 16.7394 27.3142 16.6838 27.3677C15.128 25.8311 13.5699 24.2926 12.0079 22.7507L11.2165 23.5135L10.7556 21.5146L9.81399 20.5853C11.6128 18.7714 13.4074 16.9611 15.2079 15.1448Z" fill="#D9D9D9"/>
<path fill-rule="evenodd" clip-rule="evenodd" d="M30.5333 19.7224L21.8353 28.5169H21.8363C21.9368 28.6196 22.0351 28.7211 22.1322 28.8214L22.1322 28.8214C22.3439 29.04 22.5501 29.2529 22.7615 29.4601C23.4596 30.1432 24.2973 30.324 25.2325 30.1201C25.6183 30.0361 25.9126 29.8128 26.1873 29.551L26.6486 26.5777L27.8876 27.8384C29.8247 25.8849 31.7647 23.9346 33.7066 21.9856C34.0109 21.6802 34.1636 21.3246 34.1636 20.8987C34.164 20.6644 34.1633 20.4299 34.1627 20.1954V20.1953V20.1952V20.1949C34.1615 19.7551 34.1604 19.3152 34.1656 18.8756C34.1706 18.4106 34.0069 18.0329 33.6734 17.7064C32.9912 17.0378 32.314 16.3636 31.6369 15.6895L31.6366 15.6892L31.6362 15.6889C31.3126 15.3667 30.989 15.0445 30.6649 14.723C30.3793 14.4397 30.0935 14.1566 29.8076 13.8736L27.9215 14.2928L28.2337 12.3153C27.5296 11.6172 26.8269 10.9178 26.1276 10.2148C25.7428 9.82705 25.3189 9.62414 24.7705 9.63519C23.9649 9.65127 23.1582 9.64825 22.3516 9.63519C21.8072 9.62716 21.3712 9.81902 20.9875 10.2058C19.26 11.9521 17.5265 13.6925 15.7929 15.4328L14.637 16.5934C14.5926 16.6385 14.5427 16.6782 14.4916 16.7189L14.4916 16.7189C14.4665 16.7389 14.4412 16.7591 14.416 16.7802C14.5109 16.8847 14.604 16.9858 14.6953 17.0849L14.6955 17.0852L14.6956 17.0852C14.9009 17.3081 15.0972 17.5212 15.2849 17.7416C16.0192 18.6044 17.8253 18.7762 18.7605 17.7868C18.9499 17.5865 19.1403 17.3872 19.3314 17.1885L19.6046 15.4585L20.3196 16.1735C20.8419 15.6422 21.3677 15.1142 21.8935 14.5862L21.8935 14.5861C22.3382 14.1396 22.7829 13.693 23.2255 13.2444C23.2918 13.1776 23.3581 13.1111 23.4221 13.0468C23.491 12.9776 23.5574 12.9111 23.6183 12.8496L30.5333 19.7224Z" fill="#D9D9D9"/>
<path fill-rule="evenodd" clip-rule="evenodd" d="M14.6805 14.6077L17.9656 11.2939H17.9666C17.8773 11.2077 17.7891 11.1228 17.7017 11.0387C17.5009 10.8454 17.3043 10.6563 17.1097 10.4652C16.6055 9.97098 16.0018 9.70981 15.2966 9.69072C14.6628 9.67365 14.0972 9.82633 13.6311 10.2974C13.2589 10.6734 12.8866 11.0493 12.5142 11.4251L13.0009 12.6703L11.662 12.2849C9.79068 14.1722 7.91712 16.0572 6.03807 17.9377C5.68046 18.2953 5.51271 18.6971 5.51974 19.1934C5.52778 19.7719 5.52477 20.3505 5.52075 20.9291C5.51773 21.3912 5.67444 21.7779 6.00793 22.1014C6.25135 22.3353 6.48834 22.5752 6.72525 22.815C6.86278 22.9543 7.00028 23.0935 7.13901 23.2315C7.73875 23.8293 8.33865 24.4268 8.93853 25.0244L8.9404 25.0262L8.94733 25.0331C9.95544 26.0373 10.9635 27.0414 11.9707 28.0466L13.6043 27.4136L13.1125 29.1869L13.6131 29.6874C13.9435 30.0189 14.3263 30.1726 14.7883 30.1696L14.7896 30.1696H14.7896C15.7013 30.1626 16.6119 30.1555 17.5226 30.1656C18.052 30.1716 18.4759 29.9878 18.8475 29.6071C20.1813 28.24 21.5209 26.8792 22.8605 25.5183L22.8611 25.5177L22.8617 25.5171C23.3851 24.9854 23.9085 24.4537 24.4316 23.9216C24.6354 23.7143 24.8378 23.506 25.0424 23.2954L25.3135 23.0165C25.2909 22.992 25.2697 22.9682 25.2491 22.945L25.2491 22.945C25.213 22.9045 25.1788 22.8661 25.1418 22.8297C25.0377 22.7269 24.9325 22.6252 24.8273 22.5235L24.8271 22.5233L24.827 22.5232C24.6866 22.3875 24.5462 22.2518 24.4085 22.1135C23.9354 21.6373 23.3668 21.3731 22.6968 21.334C22.0599 21.2958 21.4904 21.4545 21.0283 21.9226C19.5949 23.3771 18.1605 24.8286 16.725 26.2801C16.5938 26.4128 16.4591 26.5413 16.3233 26.6709L16.3231 26.6711C16.2677 26.724 16.2121 26.777 16.1565 26.8306C14.6007 25.294 13.0426 23.7555 11.4806 22.2136L10.6891 22.9764L10.2283 20.9775L9.28664 20.0482C11.0855 18.2343 12.8801 16.424 14.6805 14.6077Z" fill="white"/>
<path fill-rule="evenodd" clip-rule="evenodd" d="M30.0021 19.1892L21.304 27.9837H21.3051C21.4055 28.0864 21.5038 28.1879 21.6009 28.2882L21.601 28.2882C21.8126 28.5068 22.0188 28.7197 22.2302 28.9269C22.9283 29.61 23.7661 29.7908 24.7013 29.5869C25.087 29.5028 25.3813 29.2796 25.656 29.0178L26.1174 26.0445L27.3563 27.3052C29.2935 25.3517 31.2334 23.4014 33.1753 21.4524C33.4797 21.147 33.6324 20.7914 33.6324 20.3655C33.6327 20.1312 33.6321 19.8967 33.6315 19.6622V19.6621V19.662V19.6617C33.6303 19.2219 33.6291 18.782 33.6344 18.3424C33.6394 17.8774 33.4757 17.4997 33.1422 17.1732C32.4599 16.5046 31.7828 15.8304 31.1057 15.1563L31.1053 15.156L31.105 15.1557C30.7814 14.8335 30.4578 14.5113 30.1337 14.1898C29.8481 13.9065 29.5622 13.6234 29.2764 13.3404L27.3902 13.7596L27.7024 11.7821C26.9984 11.084 26.2956 10.3846 25.5963 9.68159C25.2116 9.29385 24.7877 9.09094 24.2392 9.10199C23.4336 9.11806 22.627 9.11505 21.8204 9.10199C21.2759 9.09395 20.84 9.28582 20.4562 9.67255C18.7288 11.4189 16.9952 13.1593 15.2617 14.8996L14.1058 16.0602C14.0613 16.1053 14.0114 16.145 13.9604 16.1857L13.9604 16.1857C13.9353 16.2057 13.9099 16.2259 13.8848 16.247C13.9797 16.3515 14.0728 16.4526 14.1641 16.5517L14.1643 16.552L14.1643 16.552C14.3696 16.7749 14.566 16.988 14.7537 17.2084C15.488 18.0712 17.2941 18.243 18.2293 17.2536C18.4187 17.0533 18.6091 16.854 18.8002 16.6553L19.0734 14.9253L19.7884 15.6403C20.3107 15.109 20.8364 14.581 21.3622 14.053L21.3623 14.0529C21.8069 13.6064 22.2516 13.1598 22.6943 12.7112C22.7606 12.6444 22.8268 12.5779 22.8909 12.5136C22.9598 12.4444 23.0261 12.3779 23.087 12.3164L30.0021 19.1892Z" fill="white"/>
<defs>
<filter id="filter0_f_2146_823" x="0.822266" y="4.4082" width="39.1152" height="32.0684" filterUnits="userSpaceOnUse" color-interpolation-filters="sRGB">
<feFlood flood-opacity="0" result="BackgroundImageFix"/>
<feBlend mode="normal" in="SourceGraphic" in2="BackgroundImageFix" result="shape"/>
<feGaussianBlur stdDeviation="2.75" result="effect1_foregroundBlur_2146_823"/>
</filter>
</defs>
</svg>
