<svg width="102" height="45" viewBox="0 0 102 45" fill="none" xmlns="http://www.w3.org/2000/svg">
<path fill-rule="evenodd" clip-rule="evenodd" d="M42.5538 14.8051C44.0052 13.3409 45.4594 11.8739 46.9196 10.4011H46.9209C46.8024 10.2866 46.6852 10.1739 46.5692 10.0621L46.5691 10.062L46.5688 10.0618C46.302 9.80507 46.041 9.55389 45.7826 9.30012C45.1127 8.64355 44.3106 8.29657 43.3738 8.27122C42.5317 8.24853 41.7804 8.45138 41.1612 9.07726C40.6666 9.57682 40.1719 10.0763 39.6771 10.5757L40.3234 12.2294L38.5452 11.7176C36.0591 14.225 33.57 16.7292 31.0737 19.2275C30.5986 19.7026 30.3757 20.2364 30.385 20.8957C30.3957 21.6643 30.3917 22.433 30.3864 23.2017C30.3824 23.8156 30.5906 24.3294 31.0336 24.7591C31.357 25.0698 31.6718 25.3885 31.9865 25.7071L31.9865 25.7071L31.9866 25.7071C32.1693 25.8921 32.352 26.0771 32.5363 26.2604C33.3316 27.0532 34.1272 27.8456 34.9227 28.6381L34.9267 28.642L34.9274 28.6427L34.9302 28.6455C36.2716 29.9816 37.6129 31.3177 38.9531 32.6551L41.1278 31.8125L40.4731 34.1732L41.1372 34.8373C41.5762 35.2777 42.0847 35.4819 42.6986 35.4778L42.7002 35.4778H42.7003H42.7004C43.9115 35.4685 45.1213 35.4592 46.3311 35.4725C47.0344 35.4805 47.5975 35.2363 48.0913 34.7305C49.863 32.9147 51.6423 31.1071 53.4218 29.2994C54.1179 28.5922 54.8141 27.885 55.5098 27.1772C55.7807 26.9018 56.0495 26.625 56.3214 26.3452L56.3218 26.3448C56.441 26.2221 56.5608 26.0988 56.6815 25.9748C56.6515 25.9423 56.6234 25.9107 56.596 25.88L56.596 25.88L56.5959 25.8798C56.548 25.8261 56.5026 25.775 56.4533 25.7266C56.3149 25.5899 56.175 25.4547 56.0352 25.3194C55.8487 25.1392 55.6622 24.9589 55.4791 24.7751C54.8506 24.1425 54.0953 23.7916 53.2051 23.7395C52.3591 23.6888 51.6024 23.8996 50.9885 24.5215C49.0842 26.4539 47.1785 28.3823 45.2715 30.3106C45.0973 30.4868 44.9183 30.6575 44.738 30.8296L44.7378 30.8297L44.7378 30.8298C44.6641 30.9001 44.5901 30.9707 44.5162 31.0419C42.4492 29.0004 40.3791 26.9564 38.3038 24.9078L37.2556 25.918L36.6452 23.2706L35.3895 22.0313C37.7788 19.6221 40.1624 17.2175 42.5538 14.8051Z" fill="#E7E6FB"/>
<path fill-rule="evenodd" clip-rule="evenodd" d="M62.9068 20.8939L51.3513 32.5775H51.3526C51.4861 32.7139 51.6167 32.8487 51.7457 32.982C52.0269 33.2724 52.3009 33.5553 52.5817 33.8306C53.5092 34.7381 54.6222 34.9783 55.8646 34.7074C56.3764 34.5959 56.7671 34.2999 57.1317 33.9525L57.7443 30.0049L59.3893 31.6788C61.9636 29.0826 64.5418 26.4907 67.1225 23.9005C67.5269 23.4948 67.7297 23.0224 67.7297 22.4566C67.7302 22.1452 67.7294 21.8336 67.7285 21.522V21.5219V21.5218V21.5215C67.727 20.9372 67.7254 20.3528 67.7324 19.7689C67.7391 19.151 67.5216 18.6492 67.0785 18.2155C66.1722 17.3273 65.2726 16.4317 64.3731 15.5362C63.9429 15.1079 63.5126 14.6795 63.0816 14.252C62.7018 13.8752 62.3216 13.4987 61.9413 13.1223L59.4372 13.6787L59.8517 11.0533C58.9164 10.1259 57.9827 9.19679 57.0537 8.26277C56.5426 7.74765 55.9794 7.47808 55.2507 7.49276C54.1805 7.51411 53.1089 7.51011 52.0372 7.49276C51.3139 7.48208 50.7348 7.73697 50.225 8.25076C47.9299 10.5709 45.6269 12.883 43.3238 15.1951L41.7882 16.7369C41.7292 16.7968 41.6629 16.8496 41.5951 16.9036C41.5618 16.9301 41.528 16.957 41.4946 16.9851C41.6208 17.1241 41.7446 17.2584 41.866 17.3902L41.8661 17.3903L41.8661 17.3903C42.1389 17.6864 42.3997 17.9695 42.649 18.2622C43.6245 19.4086 46.024 19.6368 47.2664 18.3223C47.5178 18.0565 47.7706 17.7918 48.0243 17.5281L48.3869 15.2319L49.3359 16.1809C50.0303 15.4745 50.7293 14.7725 51.4285 14.0704L51.4286 14.0703C52.0194 13.477 52.6102 12.8837 53.1983 12.2876C53.2863 12.199 53.3742 12.1107 53.4593 12.0254L53.4595 12.0251C53.551 11.9332 53.6391 11.8448 53.7201 11.7632L62.9068 20.8939Z" fill="#E7E6FB"/>
<g opacity="0.4" filter="url(#filter0_f_2646_719)">
<path d="M23.46 15.0679L22.3903 13.6417L22.212 35.4809L23.46 36.9517L23.46 15.0679Z" fill="black"/>
<path d="M31.9282 9.18475L30.9031 7.84766L30.9031 13.7754L31.9282 15.0679L31.9282 9.18475Z" fill="black"/>
<path d="M30.9031 13.7754L22.4349 13.7754L23.46 15.0679L31.9282 15.0679L30.9031 13.7754Z" fill="black"/>
<path d="M22.4349 35.6591L16.2843 35.6591L17.3094 36.9517L23.46 36.9517L22.4349 35.6591Z" fill="black"/>
<path d="M22.3903 13.3743L7.77148 13.3743L8.17261 13.6417L22.0338 13.6417L22.3903 13.3743Z" fill="black"/>
</g>
<path d="M7.72754 13.4106L7.72754 7.48828L30.8147 7.48828L30.8147 13.4106L22.3193 13.4106L22.3193 35.3113L16.1837 35.3113L16.1837 19.6509L22.3193 13.4106L7.72754 13.4106Z" fill="#E7E6FB"/>
<g opacity="0.4" filter="url(#filter1_f_2646_719)">
<path d="M80.9087 17.7835L74.1787 17.7835L74.4016 18.1846L81.1316 18.1846L80.9087 17.7835Z" fill="black"/>
<path d="M84.9646 22.3742L83.7166 24.1124L83.7166 35.7451L84.9646 37.0377L84.9646 22.3742Z" fill="black"/>
<path d="M94.6808 9.22611L93.6557 7.93359L84.9646 22.2405V25.2712L94.6808 9.22611Z" fill="black"/>
<path d="M83.9395 35.7451L77.7889 35.7451L78.814 37.0376L84.9646 37.0377L83.9395 35.7451Z" fill="black"/>
<path d="M81.4436 16.8921L77.0312 8.82499L76.3626 8.37929L81.2207 17.4269L81.4436 16.8921Z" fill="black"/>
</g>
<path d="M68.1104 7.48828L75.3042 7.48828L80.9565 17.8225L74.1974 17.8225L68.1104 7.48828ZM80.9565 17.8225L86.6878 7.48828L93.5655 7.48828L83.8419 23.7051L83.8419 35.3113L77.6758 35.3113L77.6758 23.7051L80.9565 17.8225Z" fill="#E7E6FB"/>
<defs>
<filter id="filter0_f_2646_719" x="0.70524" y="0.781412" width="38.2892" height="43.238" filterUnits="userSpaceOnUse" color-interpolation-filters="sRGB">
<feFlood flood-opacity="0" result="BackgroundImageFix"/>
<feBlend mode="normal" in="SourceGraphic" in2="BackgroundImageFix" result="shape"/>
<feGaussianBlur stdDeviation="3.53312" result="effect1_foregroundBlur_2646_719"/>
</filter>
<filter id="filter1_f_2646_719" x="67.1125" y="0.867349" width="34.6347" height="43.238" filterUnits="userSpaceOnUse" color-interpolation-filters="sRGB">
<feFlood flood-opacity="0" result="BackgroundImageFix"/>
<feBlend mode="normal" in="SourceGraphic" in2="BackgroundImageFix" result="shape"/>
<feGaussianBlur stdDeviation="3.53312" result="effect1_foregroundBlur_2646_719"/>
</filter>
</defs>
</svg>
