<svg width="64" height="28" viewBox="0 0 64 28" fill="none" xmlns="http://www.w3.org/2000/svg">
<path fill-rule="evenodd" clip-rule="evenodd" d="M26.281 9.17279L28.998 6.43202H28.9988C28.9251 6.36077 28.8521 6.29059 28.7799 6.22107C28.6138 6.06123 28.4513 5.90485 28.2904 5.74685C27.8735 5.33823 27.3744 5.1223 26.7913 5.10652C26.2673 5.0924 25.7997 5.21864 25.4143 5.60815C25.1065 5.91905 24.7986 6.2299 24.4907 6.54068L24.8936 7.5715L23.7852 7.25248C22.2384 8.81252 20.6897 10.3706 19.1365 11.925C18.8408 12.2207 18.7021 12.5529 18.7079 12.9632C18.7146 13.4416 18.7121 13.9199 18.7088 14.3983C18.7063 14.7803 18.8358 15.1001 19.1116 15.3675C19.3128 15.5609 19.5088 15.7592 19.7046 15.9575C19.8183 16.0727 19.932 16.1878 20.0467 16.3018C20.5425 16.796 21.0384 17.29 21.5344 17.784L21.5354 17.785L21.536 17.7857C22.3711 18.6175 23.2062 19.4493 24.0406 20.2819L25.393 19.7579L24.9859 21.2261L25.3994 21.6396C25.6726 21.9136 25.9891 22.0407 26.3711 22.0382L26.3721 22.0382H26.3722H26.3723C27.126 22.0324 27.8789 22.0266 28.6318 22.0349C29.0694 22.0399 29.4199 21.8879 29.7272 21.5731C30.8299 20.443 31.9373 19.318 33.0447 18.1929L33.0452 18.1924L33.0457 18.1919C33.4786 17.7522 33.9114 17.3125 34.344 16.8724C34.5125 16.701 34.6798 16.5288 34.849 16.3547L34.849 16.3547L35.0732 16.1241C35.0545 16.1039 35.0369 16.0842 35.0199 16.065C34.9901 16.0315 34.9618 15.9998 34.9312 15.9696C34.8451 15.8846 34.758 15.8004 34.6709 15.7163C34.5549 15.6041 34.4388 15.4919 34.3249 15.3775C33.9338 14.9838 33.4637 14.7654 32.9097 14.733C32.3832 14.7014 31.9123 14.8327 31.5302 15.2197C30.3451 16.4223 29.1591 17.6224 27.9723 18.8225C27.8639 18.9321 27.7525 19.0384 27.6403 19.1455L27.6402 19.1455L27.6402 19.1455C27.5943 19.1893 27.5483 19.2332 27.5023 19.2776C26.2162 18.0073 24.9282 16.7356 23.6369 15.4609L22.9848 16.0894L22.6051 14.4425L21.8224 13.6699C23.3093 12.1706 24.7927 10.6742 26.281 9.17279Z" fill="#483F50"/>
<path fill-rule="evenodd" clip-rule="evenodd" d="M38.9469 12.9615L31.7555 20.2326H31.7563C31.8394 20.3175 31.9206 20.4013 32.0009 20.4842L32.001 20.4843C32.176 20.6651 32.3465 20.8411 32.5212 21.0125C33.0985 21.5772 33.7911 21.7267 34.5643 21.5581C34.8831 21.4887 35.1264 21.3042 35.3534 21.0878L35.7345 18.6322L36.7577 19.6734C38.3599 18.0577 39.9644 16.4446 41.5705 14.8326C41.8222 14.5801 41.9484 14.2861 41.9484 13.934C41.9487 13.7402 41.9482 13.5463 41.9477 13.3523V13.3522V13.3522C41.9467 12.9885 41.9457 12.6248 41.9501 12.2613C41.9542 11.8768 41.8189 11.5645 41.5431 11.2946C40.9792 10.7419 40.4194 10.1846 39.8597 9.62741L39.8594 9.62717C39.5917 9.36059 39.3239 9.09404 39.0557 8.828C38.8191 8.59324 38.5823 8.35869 38.3454 8.12421L36.7882 8.47025L37.046 6.83766C36.4638 6.26038 35.8826 5.68204 35.3043 5.10065C34.9862 4.78008 34.6357 4.61231 34.1823 4.62145C33.5162 4.63474 32.8493 4.63224 32.1824 4.62145C31.7323 4.6148 31.3718 4.77343 31.0546 5.09318C29.6262 6.53716 28.1929 7.97613 26.7595 9.41511L25.8041 10.3744C25.7673 10.4117 25.7261 10.4446 25.6839 10.4782L25.6839 10.4782L25.6839 10.4782L25.6838 10.4782L25.6838 10.4782C25.6631 10.4947 25.6421 10.5114 25.6213 10.5289C25.6998 10.6152 25.7767 10.6988 25.8522 10.7807L25.8524 10.7809L25.8525 10.781L25.8525 10.781C26.0222 10.9653 26.1846 11.1415 26.3397 11.3237C26.9468 12.0371 28.4401 12.1791 29.2133 11.3611C29.37 11.1955 29.5274 11.0306 29.6855 10.8663L29.9111 9.43741L30.5017 10.028C30.9337 9.58849 31.3686 9.15171 31.8036 8.71489L31.8036 8.71488C32.1713 8.34567 32.5389 7.97642 32.9049 7.60548L33.0675 7.44212C33.1245 7.38492 33.1793 7.32989 33.2297 7.27909L38.9469 12.9615Z" fill="#483F50"/>
<g opacity="0.4" filter="url(#filter0_f_2646_1344)">
<path d="M14.3992 9.3372L13.7335 8.44961L13.6225 22.0409L14.3992 22.9562L14.3992 9.3372Z" fill="#483F50"/>
<path d="M19.6693 5.67587L19.0313 4.84375L19.0313 8.53282L19.6693 9.3372L19.6693 5.67587Z" fill="#483F50"/>
<path d="M19.0313 8.53282L13.7612 8.53282L14.3992 9.3372L19.6693 9.3372L19.0313 8.53282Z" fill="#483F50"/>
<path d="M13.7612 22.1519L9.93344 22.1519L10.5714 22.9562L14.3992 22.9562L13.7612 22.1519Z" fill="#483F50"/>
<path d="M13.7335 8.28318L4.63562 8.28318L4.88526 8.44961L13.5116 8.44961L13.7335 8.28318Z" fill="#483F50"/>
</g>
<path d="M4.60742 8.30678L4.60742 4.62109L18.9754 4.62109L18.9754 8.30678L13.6884 8.30678L13.6884 21.9364L9.86998 21.9364L9.86998 12.1904L13.6884 8.30678L4.60742 8.30678Z" fill="#483F50"/>
<g opacity="0.4" filter="url(#filter1_f_2646_1344)">
<path d="M50.151 11.0323L45.9626 11.0323L46.1013 11.2819L50.2897 11.2819L50.151 11.0323Z" fill="#483F50"/>
<path d="M52.6751 13.8892L51.8985 14.971L51.8985 22.2105L52.6751 23.0149L52.6751 13.8892Z" fill="#483F50"/>
<path d="M58.7218 5.70673L58.0839 4.90234L52.6751 13.806V15.6922L58.7218 5.70673Z" fill="#483F50"/>
<path d="M52.0371 22.2105L48.2094 22.2105L48.8473 23.0148L52.6751 23.0149L52.0371 22.2105Z" fill="#483F50"/>
<path d="M50.4838 10.4776L47.7378 5.45709L47.3218 5.17972L50.3451 10.8104L50.4838 10.4776Z" fill="#483F50"/>
</g>
<path d="M42.1864 4.62109L46.6634 4.62109L50.181 11.0525L45.9746 11.0525L42.1864 4.62109ZM50.181 11.0525L53.7479 4.62109L58.0281 4.62109L51.9767 14.7134L51.9767 21.9364L48.1393 21.9364L48.1393 14.7134L50.181 11.0525Z" fill="#483F50"/>
<defs>
<filter id="filter0_f_2646_1344" x="0.238035" y="0.446165" width="23.8289" height="26.9085" filterUnits="userSpaceOnUse" color-interpolation-filters="sRGB">
<feFlood flood-opacity="0" result="BackgroundImageFix"/>
<feBlend mode="normal" in="SourceGraphic" in2="BackgroundImageFix" result="shape"/>
<feGaussianBlur stdDeviation="2.19879" result="effect1_foregroundBlur_2646_1344"/>
</filter>
<filter id="filter1_f_2646_1344" x="41.5651" y="0.504759" width="21.5543" height="26.9085" filterUnits="userSpaceOnUse" color-interpolation-filters="sRGB">
<feFlood flood-opacity="0" result="BackgroundImageFix"/>
<feBlend mode="normal" in="SourceGraphic" in2="BackgroundImageFix" result="shape"/>
<feGaussianBlur stdDeviation="2.19879" result="effect1_foregroundBlur_2646_1344"/>
</filter>
</defs>
</svg>
