<svg width="29" height="31" viewBox="0 0 29 31" fill="none" xmlns="http://www.w3.org/2000/svg">
<path d="M7.50836 1.63196L6.11749 3.02129L3.68347 18.6513L10.9855 22.472L12.0287 23.8613L18.983 21.43L26.6328 15.5253L26.9805 9.96797L26.6328 1.97929L25.5897 1.63196H7.50836Z" fill="white"/>
<path d="M6.66663 0.533813L0.901367 5.87684V25.1117H7.81968V30.4548L13.5849 25.1117H18.1972L28.5746 15.4943V0.533813H6.66663ZM26.2685 14.4257L21.6563 18.7001H17.0441L13.0084 22.4402V18.7001H7.81968V2.67102H26.2685V14.4257Z" fill="black"/>
<path d="M22.8101 6.41113H20.504V12.8228H22.8101V6.41113Z" fill="black"/>
<path d="M16.4697 6.41113H14.1636V12.8228H16.4697V6.41113Z" fill="black"/>
</svg>
