<svg width="37" height="27" viewBox="0 0 37 27" fill="none" xmlns="http://www.w3.org/2000/svg">
<path d="M35.8506 4.9577C35.4329 3.38898 34.1972 2.15144 32.6249 1.72731C29.7821 0.966187 18.376 0.966187 18.376 0.966187C18.376 0.966187 6.97573 0.966187 4.12711 1.72731C2.56065 2.14563 1.3249 3.38317 0.901376 4.9577C0.141357 7.80463 0.141357 13.7483 0.141357 13.7483C0.141357 13.7483 0.141357 19.692 0.901376 22.539C1.3191 24.1077 2.55485 25.3452 4.12711 25.7694C6.97573 26.5305 18.376 26.5305 18.376 26.5305C18.376 26.5305 29.7821 26.5305 32.6249 25.7694C34.1914 25.351 35.4271 24.1135 35.8506 22.539C36.6107 19.692 36.6107 13.7483 36.6107 13.7483C36.6107 13.7483 36.6107 7.80463 35.8506 4.9577Z" fill="white"/>
<path d="M14.7326 19.2272L24.2067 13.7483L14.7326 8.26944V19.2272Z" fill="#FF0000"/>
</svg>
